<?xml version="1.0" encoding="UTF-8" standalone="no"?>
<!-- Created with Inkscape (http://www.inkscape.org/) -->

<svg
   xmlns:dc="http://purl.org/dc/elements/1.1/"
   xmlns:cc="http://creativecommons.org/ns#"
   xmlns:rdf="http://www.w3.org/1999/02/22-rdf-syntax-ns#"
   xmlns:svg="http://www.w3.org/2000/svg"
   xmlns="http://www.w3.org/2000/svg"
   xmlns:sodipodi="http://sodipodi.sourceforge.net/DTD/sodipodi-0.dtd"
   xmlns:inkscape="http://www.inkscape.org/namespaces/inkscape"
   width="100"
   height="100"
   viewBox="0 0 26.458333 26.458334"
   version="1.1"
   id="svg8"
   sodipodi:docname="art.svg"
   inkscape:version="0.92.2 (5c3e80d, 2017-08-06)">
  <defs
     id="defs2" />
  <sodipodi:namedview
     id="base"
     pagecolor="#ffffff"
     bordercolor="#666666"
     borderopacity="1.0"
     inkscape:pageopacity="0.0"
     inkscape:pageshadow="2"
     inkscape:zoom="8"
     inkscape:cx="69.277892"
     inkscape:cy="53.038823"
     inkscape:document-units="mm"
     inkscape:current-layer="layer1"
     showgrid="true"
     units="px"
     inkscape:window-width="1920"
     inkscape:window-height="1017"
     inkscape:window-x="1912"
     inkscape:window-y="-8"
     inkscape:window-maximized="1"
     inkscape:snap-global="false"
     inkscape:snap-bbox="true"
     inkscape:bbox-paths="true"
     inkscape:bbox-nodes="true"
     inkscape:snap-bbox-edge-midpoints="true"
     inkscape:snap-bbox-midpoints="true"
     inkscape:snap-intersection-paths="true"
     inkscape:object-paths="true"
     inkscape:snap-object-midpoints="true"
     inkscape:snap-midpoints="true"
     inkscape:snap-smooth-nodes="true"
     inkscape:snap-center="true"
     inkscape:snap-grids="true"
     inkscape:snap-to-guides="true">
    <inkscape:grid
       color="#000000"
       opacity="0.1254902"
       empcolor="#000000"
       empopacity="0.25098039"
       spacingx="2.6458333"
       spacingy="2.6458333"
       originy="0"
       type="xygrid"
       id="grid812" />
    <inkscape:grid
       type="xygrid"
       id="grid4503"
       enabled="false" />
  </sodipodi:namedview>
  <metadata
     id="metadata5">
    <rdf:RDF>
      <cc:Work
         rdf:about="">
        <dc:format>image/svg+xml</dc:format>
        <dc:type
           rdf:resource="http://purl.org/dc/dcmitype/StillImage" />
        <dc:title />
      </cc:Work>
    </rdf:RDF>
  </metadata>
  <g
     inkscape:label="Layer 1"
     inkscape:groupmode="layer"
     id="layer1"
     transform="translate(0,-270.54165)">
    <rect
       y="275.83331"
       x="5.2916665"
       height="5.2916665"
       width="5.2916665"
       id="rect1066"
       style="opacity:1;fill:#000000;fill-opacity:0;stroke:none;stroke-width:0.065;stroke-miterlimit:4;stroke-dasharray:none;stroke-dashoffset:0;stroke-opacity:1"
       inkscape:export-filename="C:\Projects\Art-Generator\src\images\art\art2.png"
       inkscape:export-xdpi="614.40002"
       inkscape:export-ydpi="614.40002" />
    <rect
       style="opacity:1;fill:#000000;fill-opacity:0;stroke:none;stroke-width:0.065;stroke-miterlimit:4;stroke-dasharray:none;stroke-dashoffset:0;stroke-opacity:1"
       id="rect1068"
       width="5.2916665"
       height="5.2916665"
       x="10.583331"
       y="275.83331"
       inkscape:export-filename="C:\Projects\Art-Generator\src\images\art\art3.png"
       inkscape:export-xdpi="614.40002"
       inkscape:export-ydpi="614.40002" />
    <rect
       style="opacity:1;fill:#000000;fill-opacity:0;stroke:none;stroke-width:0.065;stroke-miterlimit:4;stroke-dasharray:none;stroke-dashoffset:0;stroke-opacity:1"
       id="rect1064"
       width="5.2916665"
       height="5.2916665"
       x="0"
       y="275.83331"
       inkscape:export-filename="C:\Projects\Art-Generator\src\images\art\art1.png"
       inkscape:export-xdpi="614.40002"
       inkscape:export-ydpi="614.40002" />
    <rect
       style="opacity:1;fill:#3f244b;fill-opacity:1;stroke:none;stroke-width:0.04452075;stroke-miterlimit:4;stroke-dasharray:none;stroke-dashoffset:0;stroke-opacity:1"
       id="rect991"
       width="14.54309"
       height="8.9478512"
       x="-18.649977"
       y="279.53683" />
    <g
       id="g4593"
       transform="matrix(0.73436602,0,0,0.73436602,0.98170788,72.445788)"
       inkscape:export-xdpi="614.40002"
       inkscape:export-ydpi="614.40002"
       inkscape:export-filename="C:\Projects\Art-Generator\src\images\sketch\sketch1.png">
      <path
         inkscape:connector-curvature="0"
         id="path4509"
         d="m 0.63356732,272.26702 0.0123458,0.18961 -0.0370402,0.0978 0.006173,0.22654 1.18528628,1.94075 0.3642289,0.44082 0.1481609,0.13448 0.1728524,0.0115 1.7347178,-0.48367 0.1852012,-0.0794 0.080256,-0.14689 -0.043213,-0.0736 0.024674,-0.10418 -0.00618,-0.15901 z"
         style="opacity:1;fill:#e7e7e7;fill-opacity:1;stroke:none;stroke-width:2.94428229;stroke-miterlimit:4;stroke-dasharray:8.83284632, 8.83284632;stroke-dashoffset:0;stroke-opacity:1" />
      <path
         sodipodi:nodetypes="cccccccccccccc"
         inkscape:connector-curvature="0"
         id="path4507"
         d="m 2.8930198,271.76488 -0.1111206,-0.0857 -0.3457084,0.0491 -1.75323609,0.42855 -0.0493869,0.11024 0.2098947,0.33061 1.50630149,2.25303 0.1605067,0.0857 0.2592815,-0.0367 1.6544623,-0.53876 0.03704,-0.0978 0.030867,-0.13246 -1.1420728,-1.7412 z"
         style="opacity:1;fill:#ffffff;fill-opacity:1;stroke:none;stroke-width:2.94428229;stroke-miterlimit:4;stroke-dasharray:8.83284632, 8.83284632;stroke-dashoffset:0;stroke-opacity:1" />
      <path
         inkscape:connector-curvature="0"
         id="path4511"
         d="m 0.75528404,272.64894 1.04765516,1.61909 0.1527812,0.20779 -0.034922,-0.003 -0.4016011,-0.55412 -0.75955008,-1.20349 z"
         style="opacity:1;fill:#afafaf;fill-opacity:1;stroke:none;stroke-width:2.94428229;stroke-miterlimit:4;stroke-dasharray:8.83284632, 8.83284632;stroke-dashoffset:0;stroke-opacity:1" />
      <path
         inkscape:connector-curvature="0"
         id="path4513"
         d="m 1.1263286,273.4455 0.8992372,1.35504 0.2269915,0.19046 -0.056748,-0.003 -0.1920724,-0.14285 -0.8599502,-1.32904 z"
         style="opacity:1;fill:#afafaf;fill-opacity:1;stroke:none;stroke-width:2.94428229;stroke-miterlimit:4;stroke-dasharray:8.83284632, 8.83284632;stroke-dashoffset:0;stroke-opacity:1" />
      <path
         inkscape:connector-curvature="0"
         id="path4515"
         d="m 4.216911,274.51481 -1.3226644,0.45891 -0.3797752,0.0606 0.3186619,-0.009 0.8424892,-0.27704 z"
         style="opacity:1;fill:#afafaf;fill-opacity:1;stroke:none;stroke-width:2.94428229;stroke-miterlimit:4;stroke-dasharray:8.83284632, 8.83284632;stroke-dashoffset:0;stroke-opacity:1" />
      <path
         inkscape:connector-curvature="0"
         id="path4517"
         d="m 4.3173112,274.63171 -0.8075672,0.27272 -0.5674801,0.17315 0.056748,0.026 0.9952724,-0.31603 0.2881057,-0.12121 z"
         style="opacity:1;fill:#afafaf;fill-opacity:1;stroke:none;stroke-width:2.94428229;stroke-miterlimit:4;stroke-dasharray:8.83284632, 8.83284632;stroke-dashoffset:0;stroke-opacity:1" />
      <path
         inkscape:connector-curvature="0"
         id="path4519"
         d="m 1.1433529,272.21863 -0.1702439,0.0519 v 0.0346 l 0.0785743,0.10389 0.052382,0.0115 0.1658791,-0.0433 0.013093,-0.0303 -0.087305,-0.12554 z"
         style="opacity:1;fill:#e7e7e7;fill-opacity:1;stroke:none;stroke-width:2.94428229;stroke-miterlimit:4;stroke-dasharray:8.83284632, 8.83284632;stroke-dashoffset:0;stroke-opacity:1" />
      <path
         sodipodi:nodetypes="ccccccccc"
         style="opacity:1;fill:#e7e7e7;fill-opacity:1;stroke:none;stroke-width:2.94428229;stroke-miterlimit:4;stroke-dasharray:8.83284632, 8.83284632;stroke-dashoffset:0;stroke-opacity:1"
         d="m 1.6017019,272.09739 -0.1519096,0.0398 -0.015295,0.0407 0.075518,0.10995 0.04016,0.0173 0.1658802,-0.0433 0.025309,-0.0364 -0.099525,-0.11948 z"
         id="path4521"
         inkscape:connector-curvature="0" />
      <path
         style="opacity:1;fill:#e7e7e7;fill-opacity:1;stroke:none;stroke-width:2.94428229;stroke-miterlimit:4;stroke-dasharray:8.83284632, 8.83284632;stroke-dashoffset:0;stroke-opacity:1"
         d="m 2.081441,272.00646 -0.1702436,0.0519 v 0.0346 l 0.078577,0.10389 0.052384,0.0115 0.1658802,-0.0433 0.013102,-0.0303 -0.087303,-0.12553 z"
         id="path4523"
         inkscape:connector-curvature="0" />
      <path
         inkscape:connector-curvature="0"
         id="path4525"
         d="m 2.5734021,271.86101 -0.1519096,0.0398 -0.015295,0.0407 0.075518,0.10995 0.040157,0.0173 0.1658802,-0.0433 0.025309,-0.0364 -0.099525,-0.11947 z"
         style="opacity:1;fill:#e7e7e7;fill-opacity:1;stroke:none;stroke-width:2.94428229;stroke-miterlimit:4;stroke-dasharray:8.83284632, 8.83284632;stroke-dashoffset:0;stroke-opacity:1"
         sodipodi:nodetypes="ccccccccc" />
      <path
         inkscape:connector-curvature="0"
         id="path4529"
         d="m 2.5424089,271.56192 -0.1191722,0.009 -0.076392,0.0727 -0.027502,0.0817 0.00612,0.0303 0.044307,-0.0115 -0.00459,-0.0231 0.045836,-0.0938 0.1222255,-0.0144 0.067224,0.0756 v 0.14545 l -0.07028,0.0759 0.027502,0.0231 0.051946,-0.0332 0.036668,-0.10591 -0.00306,-0.1241 -0.051946,-0.082 z m -0.5469633,0.0984 -0.1313939,0.0393 -0.06417,0.11832 0.018325,0.062 0.039724,-0.0115 -0.00918,-0.0349 0.036668,-0.0909 0.11306,-0.026 0.088614,0.0606 0.04278,0.14862 -0.07028,0.11226 -0.076392,0.0378 -0.021384,0.0395 0.088614,-0.0231 0.088614,-0.0788 0.033612,-0.11226 -0.030556,-0.15151 z m -0.39418,0.0202 -0.2047299,0.0231 -0.061113,0.10908 0.02139,0.13939 0.018325,0.0349 0.044307,-0.0115 -0.035141,-0.0788 0.036668,-0.12871 0.1466718,-0.0303 0.07028,0.12727 -0.00306,0.16363 -0.04889,0.1212 -0.06417,0.0231 0.033612,0.0364 0.079448,-0.0424 0.064167,-0.1365 v -0.13016 l -0.045836,-0.1365 z m -0.61266005,0.17719 -0.0779192,0.0303 -0.0611133,0.0984 v 0.12871 l 0.0626411,-0.0144 -0.0106951,-0.10302 0.0641689,-0.0848 0.14361625,0.0378 0.051946,0.14544 -0.00458,0.11659 -0.03514,0.0788 -0.059586,0.0202 0.033612,0.0545 0.082503,-0.0517 0.061113,-0.10159 -0.03514,-0.18036 -0.061113,-0.14545 z"
         style="opacity:1;fill:#000000;fill-opacity:1;stroke:none;stroke-width:2.94428229;stroke-miterlimit:4;stroke-dasharray:8.8328462, 8.8328462;stroke-dashoffset:0;stroke-opacity:1" />
    </g>
    <path
       style="opacity:1;fill:#abd3f4;fill-opacity:1;stroke:none;stroke-width:0.18584073;stroke-miterlimit:4;stroke-dasharray:none;stroke-dashoffset:0;stroke-opacity:1"
       d="m 22.595703,0.41601562 a 0.08839719,0.08839719 0 0 0 -0.01953,0.003906 L 21.240234,0.890625 a 0.08839719,0.08839719 0 0 0 -0.03711,0.0253906 l -0.751952,0.8417969 a 0.08839719,0.08839719 0 0 0 -0.0098,0.015625 l -0.40039,0.703125 a 0.08839719,0.08839719 0 0 0 -0.01172,0.044922 L 20.054688,3.8125 a 0.08839719,0.08839719 0 0 0 0.0078,0.037109 l 0.589844,1.2011718 a 0.08839719,0.08839719 0 0 0 0.0332,0.037109 l 1.044922,0.6367188 a 0.08839719,0.08839719 0 0 0 0.05469,0.011719 l 1.427735,-0.1308593 a 0.08839719,0.08839719 0 0 0 0.04297,-0.015625 l 0.833985,-0.5703126 a 0.08839719,0.08839719 0 0 0 0.0332,-0.042969 l 0.455078,-1.3339844 a 0.08839719,0.08839719 0 0 0 0,-0.058594 L 24.121094,2.296875 A 0.08839719,0.08839719 0 0 0 24.072264,2.246094 L 23.03125,1.78125 A 0.08839719,0.08839719 0 0 0 22.97656,1.77539 l -0.824218,0.1855469 a 0.08839719,0.08839719 0 0 0 -0.04687,0.027344 L 21.558594,2.59375 a 0.08839719,0.08839719 0 0 0 -0.02148,0.050781 l -0.07227,0.7382813 a 0.08839719,0.08839719 0 0 0 0.0098,0.048828 L 21.775391,4 a 0.08839719,0.08839719 0 0 0 0.04883,0.042969 l 0.554687,0.1972656 a 0.08839719,0.08839719 0 0 0 0.0625,-0.00195 L 22.92383,4.0390659 a 0.08839719,0.08839719 0 0 0 0.05078,-0.056641 L 23.085938,3.625 a 0.08839719,0.08839719 0 0 0 -0.0098,-0.072266 L 22.892544,3.255859 A 0.08839719,0.08839719 0 0 0 22.839814,3.216796 L 22.673798,3.173827 a 0.08839719,0.08839719 0 0 0 -0.109375,0.09375 l 0.0137,0.169923 a 0.08839719,0.08839719 0 0 0 0.0293,0.058594 l 0.08594,0.076172 -0.06641,0.1621094 -0.236328,0.089844 -0.296875,-0.078125 -0.201172,-0.3808594 0.05664,-0.5917969 0.353515,-0.4121094 0.617188,-0.2207031 0.878906,0.40625 0.367188,1.0957031 L 23.806641,4.7617188 23.146484,5.2382812 21.916016,5.3867188 20.90625,4.7636719 20.402344,3.8125 l -0.0039,-1.2558594 0.347656,-0.515625 0.701172,-0.8183594 1.128906,-0.41992182 0.402344,-0.0175781 0.662109,0.16210937 a 0.08839719,0.08839719 0 0 0 0.002,0 l 0.210938,0.046875 a 0.08839719,0.08839719 0 0 0 0.103515,-0.0605469 l 0.03711,-0.12304687 a 0.08839719,0.08839719 0 0 0 -0.03711,-0.0996094 l -0.302734,-0.1875 a 0.08839719,0.08839719 0 0 0 -0.03906,-0.0136719 l -1.001953,-0.09375 a 0.08839719,0.08839719 0 0 0 -0.01758,0 z"
       transform="matrix(0.26458333,0,0,0.26458333,0.07015825,270.54165)"
       id="path1001"
       inkscape:export-filename="C:\Projects\Art-Generator\src\images\sketch\sketch2.png"
       inkscape:export-xdpi="614.40002"
       inkscape:export-ydpi="614.40002" />
    <path
       style="opacity:1;fill:#abd3f4;fill-opacity:1;stroke:none;stroke-width:0.18584073;stroke-miterlimit:4;stroke-dasharray:none;stroke-dashoffset:0;stroke-opacity:1"
       d="m 2.6464844,0.80273438 a 0.08839719,0.08839719 0 0 0 -0.00391,0.001953 L 1.3320312,1.0644531 a 0.08839719,0.08839719 0 0 0 -0.042969,0.021484 l -0.88671875,0.84375 A 0.08839719,0.08839719 0 0 0 0.375,1.9785156 L 0.1328125,3.3925781 a 0.08839719,0.08839719 0 0 0 0.003906,0.044922 L 0.47070287,4.388672 a 0.08839719,0.08839719 0 0 0 0.0351563,0.044922 L 1.6757812,5.2207031 a 0.08839719,0.08839719 0 0 0 0.056641,0.013672 L 3.0957031,5.125 A 0.08839719,0.08839719 0 0 0 3.15625,5.0917969 L 3.875,4.2050781 a 0.08839719,0.08839719 0 0 0 0.019531,-0.050781 l 0.033203,-0.84375 A 0.08839719,0.08839719 0 0 0 3.9140625,3.2578125 L 3.4707031,2.5722656 A 0.08839719,0.08839719 0 0 0 3.4277344,2.5390625 L 2.734375,2.28125 A 0.08839719,0.08839719 0 0 0 2.683594,2.27734 L 2.0566406,2.4179688 A 0.08839719,0.08839719 0 0 0 2.0039062,2.453125 L 1.6699219,2.9394531 a 0.08839719,0.08839719 0 0 0 -0.015625,0.0625 l 0.066406,0.5175781 a 0.08839719,0.08839719 0 0 0 0.041016,0.0625 l 0.3183593,0.2011719 a 0.08839719,0.08839719 0 0 0 0.072266,0.00977 L 2.4863281,3.6914062 a 0.08839719,0.08839719 0 0 0 0.052734,-0.041016 L 2.6210938,3.5 a 0.08839719,0.08839719 0 0 0 -0.0625,-0.1308594 L 2.3925781,3.3398438 A 0.08839719,0.08839719 0 0 0 2.328125,3.3535156 L 2.2304688,3.4179688 2.09375,3.3105469 2.066406,3.0605469 2.2167967,2.7929688 2.6386717,2.6972658 3.1972654,2.902344 3.5019529,3.355469 3.5546869,4.0058596 2.9355469,4.75 1.78125,4.8222656 0.79492188,4.1855469 0.50195312,3.421875 0.6796875,2.1972656 1.5429688,1.3808594 2.5917969,1.1425781 l 1.2148437,0.3203125 0.40625,0.4707032 0.6113282,0.8867187 0.1113281,1.1992187 -0.085937,0.3925782 -0.328125,0.5996094 a 0.08839719,0.08839719 0 0 0 0,0.00195 l -0.09961,0.1914093 a 0.08839719,0.08839719 0 0 0 0.03125,0.1152344 l 0.1074219,0.066406 a 0.08839719,0.08839719 0 0 0 0.1074219,-0.00977 L 4.9277344,5.1347656 a 0.08839719,0.08839719 0 0 0 0.021484,-0.033203 L 5.3007812,4.15625 a 0.08839719,0.08839719 0 0 0 0.00586,-0.037109 L 5.1972656,2.7070312 A 0.08839719,0.08839719 0 0 0 5.1835938,2.6640625 L 4.5664062,1.7207031 A 0.08839719,0.08839719 0 0 0 4.5546875,1.7070312 L 3.9765625,1.1386719 A 0.08839719,0.08839719 0 0 0 3.9355469,1.1152344 L 2.6816406,0.8046875 a 0.08839719,0.08839719 0 0 0 -0.035156,-0.001953 z"
       transform="matrix(0.26458333,0,0,0.26458333,0.07015825,270.54165)"
       id="path999"
       inkscape:export-filename="C:\Projects\Art-Generator\src\images\sketch\sketch1.png"
       inkscape:export-xdpi="614.40002"
       inkscape:export-ydpi="614.40002" />
    <path
       style="opacity:1;fill:#abd3f4;fill-opacity:1;stroke:none;stroke-width:0.18584073;stroke-miterlimit:4;stroke-dasharray:none;stroke-dashoffset:0;stroke-opacity:1"
       d="m 42.705078,0.93359375 a 0.08839719,0.08839719 0 0 0 -0.0098,0.001953 L 41.708984,1.1503906 a 0.08839719,0.08839719 0 0 0 -0.04687,0.027344 l -0.923828,1.0664062 a 0.08839719,0.08839719 0 0 0 -0.02148,0.054687 l -0.05859,1.3652344 a 0.08839719,0.08839719 0 0 0 0.02344,0.064453 l 0.791015,0.8203125 a 0.08839719,0.08839719 0 0 0 0.05078,0.027344 l 0.833984,0.1367187 a 0.08839719,0.08839719 0 0 0 0.05273,-0.00781 L 43.14454,4.3496117 a 0.08839719,0.08839719 0 0 0 0.03906,-0.039063 l 0.341797,-0.65625 a 0.08839719,0.08839719 0 0 0 0.0098,-0.050781 l -0.06445,-0.6386718 a 0.08839719,0.08839719 0 0 0 -0.0293,-0.056641 L 43.001953,2.515625 a 0.08839719,0.08839719 0 0 0 -0.05859,-0.021484 l -0.521484,0.00391 a 0.08839719,0.08839719 0 0 0 -0.06836,0.03125 l -0.238282,0.2910156 a 0.08839719,0.08839719 0 0 0 -0.01953,0.072266 l 0.05859,0.34375 a 0.08839719,0.08839719 0 0 0 0.03516,0.056641 L 42.328129,3.394536 A 0.08839719,0.08839719 0 0 0 42.464848,3.349614 L 42.515625,3.1875 a 0.08839719,0.08839719 0 0 0 -0.0059,-0.066406 l -0.05078,-0.1035157 0.123047,-0.125 0.251953,0.00391 0.246094,0.1816406 0.04297,0.4296875 -0.275353,0.529293 L 42.365234,4.2851562 41.710938,4.2578125 41.046875,3.5488281 41.119141,2.3964844 41.873047,1.4941406 42.664062,1.3007812 43.859375,1.625 44.5625,2.5820312 44.673828,3.6542969 44.205078,4.8183594 43.689453,5.1640625 42.734375,5.6601562 41.527344,5.6289062 41.150391,5.4941406 40.595703,5.09375 40.416016,4.9707031 a 0.08839719,0.08839719 0 0 0 -0.119141,0.017578 l -0.08008,0.099609 a 0.08839719,0.08839719 0 0 0 -0.0039,0.1074219 l 0.208984,0.2871094 a 0.08839719,0.08839719 0 0 0 0.03125,0.025391 l 0.894531,0.4648437 a 0.08839719,0.08839719 0 0 0 0.03711,0.00977 l 1.416015,0.064453 a 0.08839719,0.08839719 0 0 0 0.04297,-0.00781 l 1.013672,-0.4980469 a 0.08839719,0.08839719 0 0 0 0.01563,-0.011719 l 0.634765,-0.5019531 a 0.08839719,0.08839719 0 0 0 0.02734,-0.037109 l 0.458979,-1.207038 A 0.08839719,0.08839719 0 0 0 45,3.7460938 L 44.9043,2.4121094 A 0.08839719,0.08839719 0 0 0 44.88672,2.3652344 L 44.158203,1.3828125 a 0.08839719,0.08839719 0 0 0 -0.04492,-0.03125 L 42.740234,0.9375 a 0.08839719,0.08839719 0 0 0 -0.03516,-0.003906 z"
       transform="matrix(0.26458333,0,0,0.26458333,0.07015825,270.54165)"
       id="path4597"
       inkscape:export-filename="C:\Projects\Art-Generator\src\images\sketch\sketch3.png"
       inkscape:export-xdpi="614.40002"
       inkscape:export-ydpi="614.40002" />
    <path
       style="opacity:1;fill:#f78b8b;fill-opacity:1;stroke:none;stroke-width:0.18584073;stroke-miterlimit:4;stroke-dasharray:none;stroke-dashoffset:0;stroke-opacity:1"
       d="m 37.941406,4.0058594 -0.05273,0.027344 -0.150391,0.1816407 -0.486328,0.5332031 -0.0059,0.00781 -0.398438,0.5820312 -0.06836,0.037109 -1.193359,-0.1464844 -0.396485,-0.083984 -0.06445,0.015625 -0.08203,0.066406 -0.02734,0.056641 -0.002,0.1445313 0.01367,0.044922 0.5625,0.8144532 0.0039,0.00781 0.349609,0.4023437 0.0098,0.066406 -0.207031,0.2851562 -0.0039,0.00977 -0.554688,1.0332031 -0.0098,0.033203 -0.0059,0.1582031 0.05273,0.074219 0.158203,0.050781 0.03906,0.00195 0.796875,-0.1738281 h 0.0059 L 36.837891,8.0625 l 0.210937,0.068359 0.501953,0.5136718 0.0039,0.00391 0.52539,0.4785156 0.04687,0.019531 0.169922,0.00781 0.07813,-0.060547 0.04883,-0.2460938 0.002,-0.013672 0.04297,-1.1152344 0.03516,-0.2402344 0.08594,-0.097656 1.033203,-0.5390625 0.01367,-0.00977 0.271484,-0.2207031 0.02148,-0.089844 -0.05078,-0.1171875 -0.03711,-0.037109 L 39.601562,6.25 l -0.0059,-0.00195 -1.029297,-0.40625 -0.15625,-0.1484375 -0.117187,-0.5664063 -0.164063,-0.9824219 -0.0332,-0.050781 -0.105469,-0.074219 z m -0.09961,0.6347656 0.0918,0.546875 0.01172,0.029297 h -0.002 l 0.121094,0.5742187 0.0078,0.021484 0.06641,0.1171875 0.01563,0.019531 0.166015,0.1484374 0.01758,0.011719 0.05859,0.029297 0.0039,0.00195 0.984375,0.4082031 -0.976563,0.5097657 -0.01172,0.00781 -0.0625,0.048828 -0.01172,0.011719 -0.107422,0.125 -0.01172,0.017578 -0.04883,0.1074219 -0.0059,0.019531 -0.03906,0.2636718 v 0.011719 0.021484 l -0.04297,0.9238281 -0.257812,-0.2382813 -0.515625,-0.5214843 -0.01758,-0.013672 -0.08203,-0.044922 -0.0078,-0.00391 -0.263672,-0.1054688 -0.02539,-0.00586 -0.128906,-0.00586 -0.02734,0.00391 -0.605468,0.1914063 -0.476563,0.1074219 0.394531,-0.7363282 0.214844,-0.2929687 0.0078,-0.017578 0.05859,-0.1523438 0.0059,-0.039063 -0.01758,-0.1230469 -0.01172,-0.029297 -0.07227,-0.1113282 -0.0059,-0.00781 -0.447266,-0.5488281 -0.228515,-0.3320312 1.197265,0.1484374 0.02344,-0.00195 0.130859,-0.025391 0.01953,-0.00586 0.117188,-0.056641 0.01758,-0.011719 0.06641,-0.060547 0.01172,-0.013672 0.392578,-0.5859375 z"
       transform="matrix(0.26458333,0,0,0.26458333,0,270.54165)"
       id="path1029"
       inkscape:connector-curvature="0"
       sodipodi:nodetypes="ccccccccccccccccccccccccccccccccccccccccccccccccccccccccscccccccccccccccccccccccccccccccccccccccccccccccccccccccs"
       inkscape:export-filename="C:\Projects\Art-Generator\src\images\sketch\sketch2.png"
       inkscape:export-xdpi="614.40002"
       inkscape:export-ydpi="614.40002" />
    <path
       style="opacity:1;fill:#f78b8b;fill-opacity:1;stroke:none;stroke-width:0.18584073;stroke-miterlimit:4;stroke-dasharray:none;stroke-dashoffset:0;stroke-opacity:1"
       d="m 17.851562,4.375 -0.0078,0.00195 -0.04492,0.027344 -0.128906,0.1542969 -0.41211,0.453125 -0.0059,0.00781 -0.339844,0.4941407 -0.05273,0.029297 -1.011719,-0.125 -0.335937,-0.070313 -0.0625,0.013672 -0.06836,0.054687 -0.0293,0.058594 -0.002,0.1230468 0.01367,0.044922 0.476563,0.6933594 0.0059,0.00781 0.294922,0.3398438 0.0059,0.048828 -0.171875,0.2382812 -0.0039,0.00977 -0.472656,0.8808593 -0.0098,0.03125 -0.0059,0.1347657 0.05273,0.076172 0.136719,0.042969 0.03906,0.00195 L 16.388672,8 h 0.0059 l 0.517578,-0.1464844 0.173829,0.056641 0.425781,0.4355469 0.0039,0.00391 0.445313,0.40625 0.04687,0.019531 0.146485,0.00781 0.07813,-0.0625 0.04102,-0.2109375 0.002,-0.00977 0.03711,-0.9492188 0.0293,-0.1992187 0.07031,-0.080078 0.875,-0.4589844 0.01172,-0.00781 0.232422,-0.1855469 0.02344,-0.089844 -0.04297,-0.1015625 -0.03711,-0.039063 -0.205078,-0.099609 -0.0059,-0.00195 -0.873047,-0.34375 -0.128906,-0.1230469 -0.09961,-0.4785156 -0.140625,-0.8378907 -0.03125,-0.048828 -0.08789,-0.064453 z m -0.0918,0.578125 0.07422,0.4433594 0.01172,0.029297 h -0.002 l 0.101562,0.484375 0.0078,0.021484 0.05664,0.099609 0.01563,0.019531 0.140625,0.1269532 0.01758,0.011719 0.05078,0.025391 0.0039,0.00195 0.814453,0.3378906 -0.808593,0.4238281 -0.01172,0.00781 -0.05273,0.041016 -0.0098,0.00977 -0.0918,0.1054687 -0.01367,0.019531 -0.04102,0.09375 -0.0059,0.019531 -0.03516,0.2226563 v 0.019531 l 0.002,0.013672 -0.03516,0.7597656 -0.203125,-0.1875 -0.4375,-0.4453125 -0.01953,-0.015625 -0.07031,-0.037109 -0.0078,-0.00195 -0.22461,-0.087891 -0.02148,-0.00586 -0.109375,-0.00781 -0.0293,0.00391 -0.515625,0.1640625 -0.380859,0.085937 0.324218,-0.6054688 0.181641,-0.2480468 0.0078,-0.017578 0.05078,-0.1308594 0.0059,-0.037109 -0.01367,-0.1054688 -0.01367,-0.033203 -0.0625,-0.091797 -0.0039,-0.00586 -0.380859,-0.4667969 -0.179688,-0.2617188 0.994141,0.125 0.02539,-0.00195 0.111328,-0.023437 0.01758,-0.00586 0.101562,-0.048828 0.01953,-0.011719 0.05469,-0.050781 0.0098,-0.013672 0.333984,-0.4980469 z"
       transform="matrix(0.26458333,0,0,0.26458333,0,270.54165)"
       id="path1027"
       inkscape:connector-curvature="0"
       sodipodi:nodetypes="cccccccccccccccccccccccccccccccccccccccccccccccccccccccccccccccccccccccccccccccccccccccccccccccccccccccccccccccccc"
       inkscape:export-filename="C:\Projects\Art-Generator\src\images\sketch\sketch1.png"
       inkscape:export-xdpi="614.40002"
       inkscape:export-ydpi="614.40002" />
    <path
       style="opacity:1;fill:#f78b8b;fill-opacity:1;stroke:none;stroke-width:0.18584073;stroke-miterlimit:4;stroke-dasharray:none;stroke-dashoffset:0;stroke-opacity:1"
       d="m 57.775391,4.6855469 -0.05273,0.027344 -0.109375,0.1328125 -0.351562,0.3867188 -0.0059,0.00781 -0.289062,0.4179687 -0.04102,0.023437 -0.857422,-0.1074218 -0.287109,-0.058594 -0.0625,0.013672 -0.06055,0.046875 -0.0293,0.060547 v 0.1054687 l 0.01367,0.042969 0.408203,0.5917969 0.0039,0.00781 0.25,0.2871094 0.0039,0.035156 -0.144532,0.1992188 -0.0039,0.00977 -0.404297,0.7519532 -0.0098,0.033203 -0.0039,0.1152343 0.05273,0.074219 0.115234,0.037109 0.03906,0.00195 0.580078,-0.125 h 0.0059 l 0.439453,-0.125 0.142579,0.046875 0.361328,0.3691406 0.0039,0.00391 0.380859,0.3476562 0.04883,0.019531 0.125,0.00391 0.07617,-0.060547 0.03516,-0.1796874 0.002,-0.013672 0.03125,-0.8085938 0.02539,-0.1679687 0.05469,-0.0625 0.748047,-0.390625 0.01367,-0.00977 0.197265,-0.1601563 0.02148,-0.087891 -0.03711,-0.085937 -0.03711,-0.039063 -0.173828,-0.083984 -0.0059,-0.00195 -0.74414,-0.2929688 -0.105469,-0.1035156 -0.08594,-0.4023438 -0.11914,-0.7167968 -0.03125,-0.048828 -0.07617,-0.054687 z m -0.08398,0.5292969 0.06055,0.3554687 0.01172,0.029297 -0.0039,-0.00195 0.08789,0.4121094 0.0078,0.021484 0.04687,0.083984 0.01563,0.019531 0.121093,0.109375 0.01758,0.011719 0.04297,0.021484 0.0039,0.00195 0.675781,0.2792969 -0.671875,0.3515624 -0.0098,0.00781 -0.04492,0.033203 -0.01367,0.011719 -0.07812,0.091797 -0.01172,0.017578 -0.03516,0.078125 -0.0059,0.019531 -0.03125,0.1914062 v 0.021484 l 0.002,0.00977 -0.0293,0.6210938 -0.154297,-0.1425781 -0.375,-0.3789063 -0.01562,-0.013672 -0.06055,-0.035156 -0.01172,-0.00391 -0.191406,-0.074219 -0.02344,-0.00586 -0.0918,-0.00391 -0.02734,0.00391 -0.439454,0.1386719 -0.302734,0.068359 0.265625,-0.4941406 0.154297,-0.2128906 0.0078,-0.015625 0.04492,-0.109375 0.0059,-0.041016 -0.01367,-0.089844 -0.01172,-0.029297 -0.05273,-0.080078 -0.0059,-0.00781 -0.326172,-0.3984375 -0.138671,-0.203125 0.824218,0.1035156 0.02539,-0.00195 0.0957,-0.019531 0.01758,-0.00586 0.08594,-0.041016 0.01758,-0.011719 0.04883,-0.042969 0.01367,-0.013672 0.28125,-0.4257813 z"
       transform="matrix(0.26458333,0,0,0.26458333,0,270.54165)"
       id="path1023"
       inkscape:connector-curvature="0"
       sodipodi:nodetypes="ccccccccccccccccccccccccccccccccccccccccccccccccccccccccccccccccccccccccccccccccccccccccccccccccccccccccccccccccc"
       inkscape:export-filename="C:\Projects\Art-Generator\src\images\sketch\sketch3.png"
       inkscape:export-xdpi="614.40002"
       inkscape:export-ydpi="614.40002" />
    <path
       style="opacity:1;fill:#353535;fill-opacity:1;stroke:none;stroke-width:0.065;stroke-miterlimit:4;stroke-dasharray:none;stroke-dashoffset:0;stroke-opacity:1"
       d="m -4.3574093,272.96844 -0.00147,0.10541 0.111431,0.0442 0.1120655,-0.0926 -0.00631,-0.0927 -0.1163408,-0.0647 z"
       id="path4612"
       inkscape:connector-curvature="0" />
    <path
       style="opacity:1;fill:#353535;fill-opacity:1;stroke:none;stroke-width:0.065;stroke-miterlimit:4;stroke-dasharray:none;stroke-dashoffset:0;stroke-opacity:1"
       d="m -3.7759955,272.64779 -0.027625,0.14248 0.090623,0.0583 0.1309928,-0.0516 0.030908,-0.10081 -0.078504,-0.0913 -0.1332759,0.0318 z"
       id="path4614"
       inkscape:connector-curvature="0"
       sodipodi:nodetypes="cccccccc" />
    <path
       style="opacity:1;fill:#353535;fill-opacity:1;stroke:none;stroke-width:0.065;stroke-miterlimit:4;stroke-dasharray:none;stroke-dashoffset:0;stroke-opacity:1"
       d="m -4.1731881,273.5247 0.019672,-0.12831 0.026606,-0.0891 0.045732,-0.0133 0.1115089,0.0382 0.1012321,0.0566 -0.00477,0.0484 -0.035191,0.0146 -0.09735,-0.0618 -0.053707,-0.009 -0.028487,0.0213 -0.026258,0.12187 -0.027168,0.0303 z"
       id="path4616"
       inkscape:connector-curvature="0" />
    <path
       style="opacity:1;fill:#353535;fill-opacity:1;stroke:none;stroke-width:0.065;stroke-miterlimit:4;stroke-dasharray:none;stroke-dashoffset:0;stroke-opacity:1"
       d="m -3.6262932,273.16248 -0.00297,0.0968 0.035536,0.0245 0.033691,-0.024 0.012317,-0.0786 0.016241,-0.0773 0.035325,-0.008 0.114153,0.0433 0.048373,-0.002 0.017953,-0.0355 -0.055289,-0.0374 -0.136248,-0.0288 -0.063983,0.01 -0.024437,0.0421 z"
       id="path4618"
       inkscape:connector-curvature="0" />
    <path
       style="opacity:1;fill:#e35f93;fill-opacity:1;stroke:none;stroke-width:0.065;stroke-miterlimit:4;stroke-dasharray:none;stroke-dashoffset:0;stroke-opacity:1"
       d="m -3.1899862,273.44897 -0.1343586,0.21084 -0.2604492,0.14004 -0.2630332,0.0791 -0.064079,0.0408 0.03514,0.0408 0.2597703,-0.0584 0.050126,-0.0243 0.034623,0.0129 0.096797,0.10802 0.058394,0.11421 0.114205,0.0289 0.1224729,-0.0351 0.055811,-0.0786 -0.047026,-0.14935 -0.1229897,-0.12557 -0.00156,-0.0646 0.066146,-0.0873 0.040824,-0.10852 -0.00568,-0.032 z"
       id="path4620"
       inkscape:connector-curvature="0"
       sodipodi:nodetypes="ccccccccccccccccccccc" />
    <path
       style="opacity:1;fill:#353535;fill-opacity:1;stroke:none;stroke-width:0.04390365;stroke-miterlimit:4;stroke-dasharray:none;stroke-dashoffset:0;stroke-opacity:1"
       d="m 2.4921518,273.17217 -9.956e-4,0.0712 0.075266,0.0299 0.075694,-0.0626 -0.00426,-0.0626 -0.078581,-0.0437 z"
       id="path4612-0"
       inkscape:connector-curvature="0"
       inkscape:export-xdpi="614.40002"
       inkscape:export-ydpi="614.40002"
       inkscape:export-filename="C:\Projects\Art-Generator\src\images\sketch\sketch1.png" />
    <path
       style="opacity:1;fill:#353535;fill-opacity:1;stroke:none;stroke-width:0.04390365;stroke-miterlimit:4;stroke-dasharray:none;stroke-dashoffset:0;stroke-opacity:1"
       d="m 2.9763939,272.97226 -0.018659,0.0962 0.06121,0.0393 0.088478,-0.0348 0.020876,-0.068 -0.053025,-0.0616 -0.090021,0.0215 z"
       id="path4614-4"
       inkscape:connector-curvature="0"
       sodipodi:nodetypes="cccccccc"
       inkscape:export-xdpi="614.40002"
       inkscape:export-ydpi="614.40002"
       inkscape:export-filename="C:\Projects\Art-Generator\src\images\sketch\sketch1.png" />
    <path
       style="opacity:1;fill:#e35f93;fill-opacity:1;stroke:none;stroke-width:0.04390365;stroke-miterlimit:4;stroke-dasharray:none;stroke-dashoffset:0;stroke-opacity:1"
       d="m 3.2399095,273.05349 -0.071397,0.15302 -0.162075,0.11674 -0.1691749,0.0762 -0.039317,0.0329 0.027126,0.0243 0.1688141,-0.0619 0.031427,-0.0207 0.024322,0.005 0.07434,0.0638 0.049168,0.0713 0.079026,0.009 0.078924,-0.0343 0.030449,-0.0575 -0.044652,-0.0958 -0.093428,-0.0733 -0.00673,-0.0431 0.036603,-0.0644 0.017776,-0.0763 -0.00663,-0.0209 z"
       id="path4620-1"
       inkscape:connector-curvature="0"
       sodipodi:nodetypes="ccccccccccccccccccccc"
       inkscape:export-xdpi="614.40002"
       inkscape:export-ydpi="614.40002"
       inkscape:export-filename="C:\Projects\Art-Generator\src\images\sketch\sketch1.png" />
    <g
       id="g4580"
       transform="matrix(0.7699211,0.35344038,-0.35344038,0.7699211,95.363639,60.427276)"
       inkscape:transform-center-x="-0.50775799"
       inkscape:transform-center-y="-1.0758258"
       inkscape:export-xdpi="614.40002"
       inkscape:export-ydpi="614.40002"
       inkscape:export-filename="C:\Projects\Art-Generator\src\images\sketch\sketch1.png">
      <path
         sodipodi:nodetypes="cccccccc"
         inkscape:connector-curvature="0"
         id="path4546"
         d="m 5.7048476,272.91403 -0.00824,0.28413 0.021827,0.009 0.099148,-0.002 0.019749,-0.01 0.00776,-0.31323 -0.094487,-0.0117 z"
         style="opacity:1;fill:#dad8c7;fill-opacity:1;stroke:none;stroke-width:2.88587642;stroke-miterlimit:4;stroke-dasharray:8.65762898, 8.65762898;stroke-dashoffset:0;stroke-opacity:1" />
      <path
         sodipodi:nodetypes="ccccccccccc"
         inkscape:connector-curvature="0"
         id="path4544"
         d="m 5.6764844,270.58676 0.01307,2.34593 0.029923,0.0233 0.1002853,0.002 0.043331,-0.0126 -0.00686,-1.62542 0.0017,-0.74751 -0.028566,-0.0241 -0.053736,-0.0114 -0.060806,0.009 z"
         style="opacity:1;fill:#dad8c7;fill-opacity:1;stroke:none;stroke-width:2.88587642;stroke-miterlimit:4;stroke-dasharray:8.65762898, 8.65762898;stroke-dashoffset:0;stroke-opacity:1" />
      <path
         sodipodi:nodetypes="ccccccccccc"
         inkscape:connector-curvature="0"
         id="path4550"
         d="m 5.7141128,273.24245 0.02696,0.0156 0.010713,0.0155 -0.00366,0.036 0.0085,0.0108 0.013266,0.002 0.00272,-0.0161 0.00502,-0.0355 0.034178,-0.0227 -0.028859,-0.0778 z"
         style="opacity:1;fill:#e5e5e5;fill-opacity:1;stroke:none;stroke-width:1;stroke-miterlimit:4;stroke-dasharray:2.99999996, 2.99999996;stroke-dashoffset:0;stroke-opacity:1" />
      <path
         sodipodi:nodetypes="cccccccc"
         inkscape:connector-curvature="0"
         id="path4548"
         d="m 5.7225956,273.1693 -0.00848,0.0731 0.034946,-0.01 0.040259,0.002 0.022541,0.0135 0.00572,-0.10764 -0.080013,-0.002 z"
         style="opacity:1;fill:#dad8c7;fill-opacity:1;stroke:none;stroke-width:2.88587642;stroke-miterlimit:4;stroke-dasharray:8.65762898, 8.65762898;stroke-dashoffset:0;stroke-opacity:1" />
      <path
         transform="matrix(0.26458333,0,0,0.26458333,0,270.54165)"
         id="path4552"
         d="m 21.900391,2.2109375 -0.330079,0.035156 -0.103515,0.041016 v 0.125 l 0.15625,-0.076172 0.365234,0.033203 0.148438,0.056641 V 2.3105469 Z"
         style="opacity:1;fill:#1e1e1e;fill-opacity:1;stroke:none;stroke-width:4.21713543;stroke-miterlimit:4;stroke-dasharray:12.65140539, 12.65140539;stroke-dashoffset:0;stroke-opacity:1"
         inkscape:connector-curvature="0" />
      <path
         transform="matrix(0.26458333,0,0,0.26458333,0,270.54165)"
         id="path4560"
         d="m 21.830078,-0.01757813 -0.230469,0.03320313 -0.144531,0.15429688 0.002,0.4453125 L 21.601562,0.5625 21.960938,0.546875 22.138672,0.625 22.140672,0.1171875 22.03325,0.02539063 Z"
         style="opacity:1;fill:#e5e5e5;fill-opacity:1;stroke:none;stroke-width:3.77952766;stroke-miterlimit:4;stroke-dasharray:11.33858253, 11.33858253;stroke-dashoffset:0;stroke-opacity:1"
         inkscape:connector-curvature="0" />
      <path
         transform="matrix(0.26458333,0,0,0.26458333,0,270.54165)"
         id="path4565"
         d="m 21.796875,10.4375 -0.03125,0.0078 -0.03711,0.02149 0.0293,0.03516 0.04883,0.0078 0.0098,-0.05469 z"
         style="opacity:1;fill:#1e1e1e;fill-opacity:1;stroke:none;stroke-width:3.77952766;stroke-miterlimit:4;stroke-dasharray:11.33858253, 11.33858253;stroke-dashoffset:0;stroke-opacity:1"
         inkscape:connector-curvature="0" />
      <path
         inkscape:connector-curvature="0"
         id="path4570"
         d="m 5.8497721,270.67394 0.047542,0.0165 v 0.46819 l -0.010335,0.0134 -0.021704,-0.0207 -0.0062,-0.0351 0.015503,-0.0289 0.0062,10e-4 -0.01447,0.03 0.0031,0.0227 0.012401,0.0155 0.00517,-0.005 -0.00206,-0.26458 0.00414,-0.17363 -0.00517,-0.0165 -0.032039,-0.0114 z"
         style="opacity:1;fill:#e5e5e5;fill-opacity:1;stroke:none;stroke-width:1;stroke-miterlimit:4;stroke-dasharray:2.99999996, 2.99999996;stroke-dashoffset:0;stroke-opacity:1" />
    </g>
    <path
       style="opacity:1;fill:#353535;fill-opacity:1;stroke:none;stroke-width:0.04973309;stroke-miterlimit:4;stroke-dasharray:none;stroke-dashoffset:0;stroke-opacity:1"
       d="m -4.7075651,273.20387 -0.1518294,-0.10754 -0.113872,-0.75283 -0.056936,-0.13284 -0.05061,0.019 -0.366921,0.64528 -0.056936,0.0633 -0.094893,-0.019 -0.7022108,-0.29734 -0.094893,-0.0126 -0.044284,0.0759 0.4491619,0.80343 -0.253049,0.25937 -0.075915,0.15183 0.05061,0.0569 0.676906,0.12019 0.069588,0.13286 0.063262,0.47446 0.069589,0.0506 0.025305,-0.0696 -0.075915,-0.52508 -0.1012196,-0.15183 -0.6262962,-0.0949 v -0.0633 l 0.3036588,-0.28468 0.018979,-0.0633 -0.3985522,-0.6516 -0.018979,-0.0569 0.1265245,0.0633 0.6136437,0.24039 0.1138721,-0.0316 0.2783538,-0.51874 0.05061,-0.0443 0.031631,0.0949 0.088567,0.59467 0.056936,0.0949 0.2087654,0.0759 0.031631,-0.0696 z"
       id="path4652"
       inkscape:connector-curvature="0" />
    <path
       style="opacity:1;fill:#353535;fill-opacity:1;stroke:none;stroke-width:0.03068023;stroke-miterlimit:4;stroke-dasharray:none;stroke-dashoffset:0;stroke-opacity:1"
       d="m 3.199414,272.87635 -0.093664,-0.0663 -0.070247,-0.46442 -0.035124,-0.0819 -0.031222,0.0117 -0.2263527,0.39807 -0.035124,0.039 -0.05854,-0.0117 -0.4331921,-0.18344 -0.05854,-0.007 -0.027319,0.0469 0.277087,0.49564 -0.1561054,0.16 -0.046832,0.0936 0.031222,0.035 0.4175817,0.0742 0.04293,0.0819 0.039025,0.29269 0.042929,0.0312 0.01561,-0.0429 -0.046832,-0.32392 -0.062442,-0.0936 -0.3863607,-0.0586 v -0.039 l 0.1873265,-0.17561 0.011708,-0.039 -0.245866,-0.40197 -0.011708,-0.035 0.078052,0.039 0.3785553,0.14829 0.070247,-0.0195 0.1717158,-0.32 0.031222,-0.0274 0.019512,0.0586 0.054638,0.36687 0.035124,0.0586 0.1287868,0.0469 0.019513,-0.0429 z"
       id="path4652-4"
       inkscape:connector-curvature="0"
       inkscape:export-xdpi="614.40002"
       inkscape:export-ydpi="614.40002"
       inkscape:export-filename="C:\Projects\Art-Generator\src\images\sketch\sketch1.png" />
    <rect
       style="opacity:1;fill:#353535;fill-opacity:0;stroke:none;stroke-width:0.065;stroke-miterlimit:4;stroke-dasharray:none;stroke-dashoffset:0;stroke-opacity:1"
       id="rect4729"
       width="5.2916665"
       height="5.2916665"
       x="0"
       y="270.54166"
       inkscape:export-xdpi="614.40002"
       inkscape:export-ydpi="614.40002"
       inkscape:export-filename="C:\Projects\Art-Generator\src\images\sketch\sketch1.png" />
    <g
       transform="matrix(0.73436602,0,0,0.73436602,6.2733746,72.445788)"
       id="g4877"
       inkscape:export-xdpi="614.40002"
       inkscape:export-ydpi="614.40002"
       inkscape:export-filename="C:\Projects\Art-Generator\src\images\sketch\sketch2.png">
      <path
         style="opacity:1;fill:#e7e7e7;fill-opacity:1;stroke:none;stroke-width:2.94428229;stroke-miterlimit:4;stroke-dasharray:8.83284632, 8.83284632;stroke-dashoffset:0;stroke-opacity:1"
         d="m 0.63356732,272.26702 0.0123458,0.18961 -0.0370402,0.0978 0.006173,0.22654 1.18528628,1.94075 0.3642289,0.44082 0.1481609,0.13448 0.1728524,0.0115 1.7347178,-0.48367 0.1852012,-0.0794 0.080256,-0.14689 -0.043213,-0.0736 0.024674,-0.10418 -0.00618,-0.15901 z"
         id="path4855"
         inkscape:connector-curvature="0" />
      <path
         style="opacity:1;fill:#ffffff;fill-opacity:1;stroke:none;stroke-width:2.94428229;stroke-miterlimit:4;stroke-dasharray:8.83284632, 8.83284632;stroke-dashoffset:0;stroke-opacity:1"
         d="m 2.8930198,271.76488 -0.1111206,-0.0857 -0.3457084,0.0491 -1.75323609,0.42855 -0.0493869,0.11024 0.2098947,0.33061 1.50630149,2.25303 0.1605067,0.0857 0.2592815,-0.0367 1.6544623,-0.53876 0.03704,-0.0978 0.030867,-0.13246 -1.1420728,-1.7412 z"
         id="path4857"
         inkscape:connector-curvature="0"
         sodipodi:nodetypes="cccccccccccccc" />
      <path
         style="opacity:1;fill:#afafaf;fill-opacity:1;stroke:none;stroke-width:2.94428229;stroke-miterlimit:4;stroke-dasharray:8.83284632, 8.83284632;stroke-dashoffset:0;stroke-opacity:1"
         d="m 0.75528404,272.64894 1.04765516,1.61909 0.1527812,0.20779 -0.034922,-0.003 -0.4016011,-0.55412 -0.75955008,-1.20349 z"
         id="path4859"
         inkscape:connector-curvature="0" />
      <path
         style="opacity:1;fill:#afafaf;fill-opacity:1;stroke:none;stroke-width:2.94428229;stroke-miterlimit:4;stroke-dasharray:8.83284632, 8.83284632;stroke-dashoffset:0;stroke-opacity:1"
         d="m 1.1263286,273.4455 0.8992372,1.35504 0.2269915,0.19046 -0.056748,-0.003 -0.1920724,-0.14285 -0.8599502,-1.32904 z"
         id="path4861"
         inkscape:connector-curvature="0" />
      <path
         style="opacity:1;fill:#afafaf;fill-opacity:1;stroke:none;stroke-width:2.94428229;stroke-miterlimit:4;stroke-dasharray:8.83284632, 8.83284632;stroke-dashoffset:0;stroke-opacity:1"
         d="m 4.216911,274.51481 -1.3226644,0.45891 -0.3797752,0.0606 0.3186619,-0.009 0.8424892,-0.27704 z"
         id="path4863"
         inkscape:connector-curvature="0" />
      <path
         style="opacity:1;fill:#afafaf;fill-opacity:1;stroke:none;stroke-width:2.94428229;stroke-miterlimit:4;stroke-dasharray:8.83284632, 8.83284632;stroke-dashoffset:0;stroke-opacity:1"
         d="m 4.3173112,274.63171 -0.8075672,0.27272 -0.5674801,0.17315 0.056748,0.026 0.9952724,-0.31603 0.2881057,-0.12121 z"
         id="path4865"
         inkscape:connector-curvature="0" />
      <path
         style="opacity:1;fill:#e7e7e7;fill-opacity:1;stroke:none;stroke-width:2.94428229;stroke-miterlimit:4;stroke-dasharray:8.83284632, 8.83284632;stroke-dashoffset:0;stroke-opacity:1"
         d="m 1.1433529,272.21863 -0.1702439,0.0519 v 0.0346 l 0.0785743,0.10389 0.052382,0.0115 0.1658791,-0.0433 0.013093,-0.0303 -0.087305,-0.12554 z"
         id="path4867"
         inkscape:connector-curvature="0" />
      <path
         inkscape:connector-curvature="0"
         id="path4869"
         d="m 1.6017019,272.09739 -0.1519096,0.0398 -0.015295,0.0407 0.075518,0.10995 0.04016,0.0173 0.1658802,-0.0433 0.025309,-0.0364 -0.099525,-0.11948 z"
         style="opacity:1;fill:#e7e7e7;fill-opacity:1;stroke:none;stroke-width:2.94428229;stroke-miterlimit:4;stroke-dasharray:8.83284632, 8.83284632;stroke-dashoffset:0;stroke-opacity:1"
         sodipodi:nodetypes="ccccccccc" />
      <path
         inkscape:connector-curvature="0"
         id="path4871"
         d="m 2.081441,272.00646 -0.1702436,0.0519 v 0.0346 l 0.078577,0.10389 0.052384,0.0115 0.1658802,-0.0433 0.013102,-0.0303 -0.087303,-0.12553 z"
         style="opacity:1;fill:#e7e7e7;fill-opacity:1;stroke:none;stroke-width:2.94428229;stroke-miterlimit:4;stroke-dasharray:8.83284632, 8.83284632;stroke-dashoffset:0;stroke-opacity:1" />
      <path
         sodipodi:nodetypes="ccccccccc"
         style="opacity:1;fill:#e7e7e7;fill-opacity:1;stroke:none;stroke-width:2.94428229;stroke-miterlimit:4;stroke-dasharray:8.83284632, 8.83284632;stroke-dashoffset:0;stroke-opacity:1"
         d="m 2.5734021,271.86101 -0.1519096,0.0398 -0.015295,0.0407 0.075518,0.10995 0.040157,0.0173 0.1658802,-0.0433 0.025309,-0.0364 -0.099525,-0.11947 z"
         id="path4873"
         inkscape:connector-curvature="0" />
      <path
         style="opacity:1;fill:#000000;fill-opacity:1;stroke:none;stroke-width:2.94428229;stroke-miterlimit:4;stroke-dasharray:8.8328462, 8.8328462;stroke-dashoffset:0;stroke-opacity:1"
         d="m 2.5424089,271.56192 -0.1191722,0.009 -0.076392,0.0727 -0.027502,0.0817 0.00612,0.0303 0.044307,-0.0115 -0.00459,-0.0231 0.045836,-0.0938 0.1222255,-0.0144 0.067224,0.0756 v 0.14545 l -0.07028,0.0759 0.027502,0.0231 0.051946,-0.0332 0.036668,-0.10591 -0.00306,-0.1241 -0.051946,-0.082 z m -0.5469633,0.0984 -0.1313939,0.0393 -0.06417,0.11832 0.018325,0.062 0.039724,-0.0115 -0.00918,-0.0349 0.036668,-0.0909 0.11306,-0.026 0.088614,0.0606 0.04278,0.14862 -0.07028,0.11226 -0.076392,0.0378 -0.021384,0.0395 0.088614,-0.0231 0.088614,-0.0788 0.033612,-0.11226 -0.030556,-0.15151 z m -0.39418,0.0202 -0.2047299,0.0231 -0.061113,0.10908 0.02139,0.13939 0.018325,0.0349 0.044307,-0.0115 -0.035141,-0.0788 0.036668,-0.12871 0.1466718,-0.0303 0.07028,0.12727 -0.00306,0.16363 -0.04889,0.1212 -0.06417,0.0231 0.033612,0.0364 0.079448,-0.0424 0.064167,-0.1365 v -0.13016 l -0.045836,-0.1365 z m -0.61266005,0.17719 -0.0779192,0.0303 -0.0611133,0.0984 v 0.12871 l 0.0626411,-0.0144 -0.0106951,-0.10302 0.0641689,-0.0848 0.14361625,0.0378 0.051946,0.14544 -0.00458,0.11659 -0.03514,0.0788 -0.059586,0.0202 0.033612,0.0545 0.082503,-0.0517 0.061113,-0.10159 -0.03514,-0.18036 -0.061113,-0.14545 z"
         id="path4875"
         inkscape:connector-curvature="0" />
    </g>
    <path
       sodipodi:nodetypes="ccccccccccccccccccccc"
       inkscape:connector-curvature="0"
       id="path4893"
       d="m 8.5315762,273.05349 -0.071397,0.15302 -0.162075,0.11674 -0.1691749,0.0762 -0.039317,0.0329 0.027126,0.0243 0.1688141,-0.0619 0.031427,-0.0207 0.024322,0.005 0.07434,0.0638 0.049168,0.0713 0.079026,0.009 0.078924,-0.0343 0.030449,-0.0575 -0.044652,-0.0958 -0.093428,-0.0733 -0.00673,-0.0431 0.036603,-0.0644 0.017776,-0.0763 -0.00663,-0.0209 z"
       style="opacity:1;fill:#e35f93;fill-opacity:1;stroke:none;stroke-width:0.04390365;stroke-miterlimit:4;stroke-dasharray:none;stroke-dashoffset:0;stroke-opacity:1"
       inkscape:export-xdpi="614.40002"
       inkscape:export-ydpi="614.40002"
       inkscape:export-filename="C:\Projects\Art-Generator\src\images\sketch\sketch2.png" />
    <g
       inkscape:transform-center-y="-1.120206"
       inkscape:transform-center-x="-0.38542343"
       transform="matrix(0.80396061,0.2671066,-0.2671066,0.80396061,76.862283,51.622156)"
       id="g4911"
       inkscape:export-xdpi="614.40002"
       inkscape:export-ydpi="614.40002"
       inkscape:export-filename="C:\Projects\Art-Generator\src\images\sketch\sketch2.png">
      <path
         style="opacity:1;fill:#dad8c7;fill-opacity:1;stroke:none;stroke-width:2.88587642;stroke-miterlimit:4;stroke-dasharray:8.65762898, 8.65762898;stroke-dashoffset:0;stroke-opacity:1"
         d="m 5.7048476,272.91403 -0.00824,0.28413 0.021827,0.009 0.099148,-0.002 0.019749,-0.01 0.00776,-0.31323 -0.094487,-0.0117 z"
         id="path4895"
         inkscape:connector-curvature="0"
         sodipodi:nodetypes="cccccccc" />
      <path
         style="opacity:1;fill:#dad8c7;fill-opacity:1;stroke:none;stroke-width:2.88587642;stroke-miterlimit:4;stroke-dasharray:8.65762898, 8.65762898;stroke-dashoffset:0;stroke-opacity:1"
         d="m 5.6764844,270.58676 0.01307,2.34593 0.029923,0.0233 0.1002853,0.002 0.043331,-0.0126 -0.00686,-1.62542 0.0017,-0.74751 -0.028566,-0.0241 -0.053736,-0.0114 -0.060806,0.009 z"
         id="path4897"
         inkscape:connector-curvature="0"
         sodipodi:nodetypes="ccccccccccc" />
      <path
         style="opacity:1;fill:#e5e5e5;fill-opacity:1;stroke:none;stroke-width:1;stroke-miterlimit:4;stroke-dasharray:2.99999996, 2.99999996;stroke-dashoffset:0;stroke-opacity:1"
         d="m 5.7141128,273.24245 0.02696,0.0156 0.010713,0.0155 -0.00366,0.036 0.0085,0.0108 0.013266,0.002 0.00272,-0.0161 0.00502,-0.0355 0.034178,-0.0227 -0.028859,-0.0778 z"
         id="path4899"
         inkscape:connector-curvature="0"
         sodipodi:nodetypes="ccccccccccc" />
      <path
         style="opacity:1;fill:#dad8c7;fill-opacity:1;stroke:none;stroke-width:2.88587642;stroke-miterlimit:4;stroke-dasharray:8.65762898, 8.65762898;stroke-dashoffset:0;stroke-opacity:1"
         d="m 5.7225956,273.1693 -0.00848,0.0731 0.034946,-0.01 0.040259,0.002 0.022541,0.0135 0.00572,-0.10764 -0.080013,-0.002 z"
         id="path4901"
         inkscape:connector-curvature="0"
         sodipodi:nodetypes="cccccccc" />
      <path
         inkscape:connector-curvature="0"
         style="opacity:1;fill:#1e1e1e;fill-opacity:1;stroke:none;stroke-width:4.21713543;stroke-miterlimit:4;stroke-dasharray:12.65140539, 12.65140539;stroke-dashoffset:0;stroke-opacity:1"
         d="m 21.900391,2.2109375 -0.330079,0.035156 -0.103515,0.041016 v 0.125 l 0.15625,-0.076172 0.365234,0.033203 0.148438,0.056641 V 2.3105469 Z"
         id="path4903"
         transform="matrix(0.26458333,0,0,0.26458333,0,270.54165)" />
      <path
         inkscape:connector-curvature="0"
         style="opacity:1;fill:#e5e5e5;fill-opacity:1;stroke:none;stroke-width:3.77952766;stroke-miterlimit:4;stroke-dasharray:11.33858253, 11.33858253;stroke-dashoffset:0;stroke-opacity:1"
         d="m 21.830078,-0.01757813 -0.230469,0.03320313 -0.144531,0.15429688 0.002,0.4453125 L 21.601562,0.5625 21.960938,0.546875 22.138672,0.625 22.140672,0.1171875 22.03325,0.02539063 Z"
         id="path4905"
         transform="matrix(0.26458333,0,0,0.26458333,0,270.54165)" />
      <path
         inkscape:connector-curvature="0"
         style="opacity:1;fill:#1e1e1e;fill-opacity:1;stroke:none;stroke-width:3.77952766;stroke-miterlimit:4;stroke-dasharray:11.33858253, 11.33858253;stroke-dashoffset:0;stroke-opacity:1"
         d="m 21.796875,10.4375 -0.03125,0.0078 -0.03711,0.02149 0.0293,0.03516 0.04883,0.0078 0.0098,-0.05469 z"
         id="path4907"
         transform="matrix(0.26458333,0,0,0.26458333,0,270.54165)" />
      <path
         style="opacity:1;fill:#e5e5e5;fill-opacity:1;stroke:none;stroke-width:1;stroke-miterlimit:4;stroke-dasharray:2.99999996, 2.99999996;stroke-dashoffset:0;stroke-opacity:1"
         d="m 5.8497721,270.67394 0.047542,0.0165 v 0.46819 l -0.010335,0.0134 -0.021704,-0.0207 -0.0062,-0.0351 0.015503,-0.0289 0.0062,10e-4 -0.01447,0.03 0.0031,0.0227 0.012401,0.0155 0.00517,-0.005 -0.00206,-0.26458 0.00414,-0.17363 -0.00517,-0.0165 -0.032039,-0.0114 z"
         id="path4909"
         inkscape:connector-curvature="0" />
    </g>
    <path
       inkscape:connector-curvature="0"
       id="path4913"
       d="m 8.4910807,272.87635 -0.093664,-0.0663 -0.070247,-0.46442 -0.035124,-0.0819 -0.031222,0.0117 -0.2263527,0.39807 -0.035124,0.039 -0.05854,-0.0117 -0.4331921,-0.18344 -0.05854,-0.007 -0.027319,0.0469 0.277087,0.49564 -0.1561054,0.16 -0.046832,0.0936 0.031222,0.035 0.4175817,0.0742 0.04293,0.0819 0.039025,0.29269 0.042929,0.0312 0.01561,-0.0429 -0.046832,-0.32392 -0.062442,-0.0936 -0.3863607,-0.0586 v -0.039 l 0.1873265,-0.17561 0.011708,-0.039 -0.245866,-0.40197 -0.011708,-0.035 0.078052,0.039 0.3785553,0.14829 0.070247,-0.0195 0.1717158,-0.32 0.031222,-0.0274 0.019512,0.0586 0.054638,0.36687 0.035124,0.0586 0.1287868,0.0469 0.019513,-0.0429 z"
       style="opacity:1;fill:#353535;fill-opacity:1;stroke:none;stroke-width:0.03068023;stroke-miterlimit:4;stroke-dasharray:none;stroke-dashoffset:0;stroke-opacity:1"
       inkscape:export-xdpi="614.40002"
       inkscape:export-ydpi="614.40002"
       inkscape:export-filename="C:\Projects\Art-Generator\src\images\sketch\sketch2.png" />
    <rect
       y="270.54166"
       x="5.2916665"
       height="5.2916665"
       width="5.2916665"
       id="rect4915"
       style="opacity:1;fill:#353535;fill-opacity:0;stroke:none;stroke-width:0.065;stroke-miterlimit:4;stroke-dasharray:none;stroke-dashoffset:0;stroke-opacity:1"
       inkscape:export-xdpi="614.40002"
       inkscape:export-ydpi="614.40002"
       inkscape:export-filename="C:\Projects\Art-Generator\src\images\sketch\sketch2.png" />
    <g
       id="g4939"
       transform="matrix(0.73436602,0,0,0.73436602,11.565042,72.445788)"
       inkscape:export-xdpi="614.40002"
       inkscape:export-ydpi="614.40002"
       inkscape:export-filename="C:\Projects\Art-Generator\src\images\sketch\sketch3.png">
      <path
         inkscape:connector-curvature="0"
         id="path4917"
         d="m 0.63356732,272.26702 0.0123458,0.18961 -0.0370402,0.0978 0.006173,0.22654 1.18528628,1.94075 0.3642289,0.44082 0.1481609,0.13448 0.1728524,0.0115 1.7347178,-0.48367 0.1852012,-0.0794 0.080256,-0.14689 -0.043213,-0.0736 0.024674,-0.10418 -0.00618,-0.15901 z"
         style="opacity:1;fill:#e7e7e7;fill-opacity:1;stroke:none;stroke-width:2.94428229;stroke-miterlimit:4;stroke-dasharray:8.83284632, 8.83284632;stroke-dashoffset:0;stroke-opacity:1" />
      <path
         sodipodi:nodetypes="cccccccccccccc"
         inkscape:connector-curvature="0"
         id="path4919"
         d="m 2.8930198,271.76488 -0.1111206,-0.0857 -0.3457084,0.0491 -1.75323609,0.42855 -0.0493869,0.11024 0.2098947,0.33061 1.50630149,2.25303 0.1605067,0.0857 0.2592815,-0.0367 1.6544623,-0.53876 0.03704,-0.0978 0.030867,-0.13246 -1.1420728,-1.7412 z"
         style="opacity:1;fill:#ffffff;fill-opacity:1;stroke:none;stroke-width:2.94428229;stroke-miterlimit:4;stroke-dasharray:8.83284632, 8.83284632;stroke-dashoffset:0;stroke-opacity:1" />
      <path
         inkscape:connector-curvature="0"
         id="path4921"
         d="m 0.75528404,272.64894 1.04765516,1.61909 0.1527812,0.20779 -0.034922,-0.003 -0.4016011,-0.55412 -0.75955008,-1.20349 z"
         style="opacity:1;fill:#afafaf;fill-opacity:1;stroke:none;stroke-width:2.94428229;stroke-miterlimit:4;stroke-dasharray:8.83284632, 8.83284632;stroke-dashoffset:0;stroke-opacity:1" />
      <path
         inkscape:connector-curvature="0"
         id="path4923"
         d="m 1.1263286,273.4455 0.8992372,1.35504 0.2269915,0.19046 -0.056748,-0.003 -0.1920724,-0.14285 -0.8599502,-1.32904 z"
         style="opacity:1;fill:#afafaf;fill-opacity:1;stroke:none;stroke-width:2.94428229;stroke-miterlimit:4;stroke-dasharray:8.83284632, 8.83284632;stroke-dashoffset:0;stroke-opacity:1" />
      <path
         inkscape:connector-curvature="0"
         id="path4925"
         d="m 4.216911,274.51481 -1.3226644,0.45891 -0.3797752,0.0606 0.3186619,-0.009 0.8424892,-0.27704 z"
         style="opacity:1;fill:#afafaf;fill-opacity:1;stroke:none;stroke-width:2.94428229;stroke-miterlimit:4;stroke-dasharray:8.83284632, 8.83284632;stroke-dashoffset:0;stroke-opacity:1" />
      <path
         inkscape:connector-curvature="0"
         id="path4927"
         d="m 4.3173112,274.63171 -0.8075672,0.27272 -0.5674801,0.17315 0.056748,0.026 0.9952724,-0.31603 0.2881057,-0.12121 z"
         style="opacity:1;fill:#afafaf;fill-opacity:1;stroke:none;stroke-width:2.94428229;stroke-miterlimit:4;stroke-dasharray:8.83284632, 8.83284632;stroke-dashoffset:0;stroke-opacity:1" />
      <path
         inkscape:connector-curvature="0"
         id="path4929"
         d="m 1.1433529,272.21863 -0.1702439,0.0519 v 0.0346 l 0.0785743,0.10389 0.052382,0.0115 0.1658791,-0.0433 0.013093,-0.0303 -0.087305,-0.12554 z"
         style="opacity:1;fill:#e7e7e7;fill-opacity:1;stroke:none;stroke-width:2.94428229;stroke-miterlimit:4;stroke-dasharray:8.83284632, 8.83284632;stroke-dashoffset:0;stroke-opacity:1" />
      <path
         sodipodi:nodetypes="ccccccccc"
         style="opacity:1;fill:#e7e7e7;fill-opacity:1;stroke:none;stroke-width:2.94428229;stroke-miterlimit:4;stroke-dasharray:8.83284632, 8.83284632;stroke-dashoffset:0;stroke-opacity:1"
         d="m 1.6017019,272.09739 -0.1519096,0.0398 -0.015295,0.0407 0.075518,0.10995 0.04016,0.0173 0.1658802,-0.0433 0.025309,-0.0364 -0.099525,-0.11948 z"
         id="path4931"
         inkscape:connector-curvature="0" />
      <path
         style="opacity:1;fill:#e7e7e7;fill-opacity:1;stroke:none;stroke-width:2.94428229;stroke-miterlimit:4;stroke-dasharray:8.83284632, 8.83284632;stroke-dashoffset:0;stroke-opacity:1"
         d="m 2.081441,272.00646 -0.1702436,0.0519 v 0.0346 l 0.078577,0.10389 0.052384,0.0115 0.1658802,-0.0433 0.013102,-0.0303 -0.087303,-0.12553 z"
         id="path4933"
         inkscape:connector-curvature="0" />
      <path
         inkscape:connector-curvature="0"
         id="path4935"
         d="m 2.5734021,271.86101 -0.1519096,0.0398 -0.015295,0.0407 0.075518,0.10995 0.040157,0.0173 0.1658802,-0.0433 0.025309,-0.0364 -0.099525,-0.11947 z"
         style="opacity:1;fill:#e7e7e7;fill-opacity:1;stroke:none;stroke-width:2.94428229;stroke-miterlimit:4;stroke-dasharray:8.83284632, 8.83284632;stroke-dashoffset:0;stroke-opacity:1"
         sodipodi:nodetypes="ccccccccc" />
      <path
         inkscape:connector-curvature="0"
         id="path4937"
         d="m 2.5424089,271.56192 -0.1191722,0.009 -0.076392,0.0727 -0.027502,0.0817 0.00612,0.0303 0.044307,-0.0115 -0.00459,-0.0231 0.045836,-0.0938 0.1222255,-0.0144 0.067224,0.0756 v 0.14545 l -0.07028,0.0759 0.027502,0.0231 0.051946,-0.0332 0.036668,-0.10591 -0.00306,-0.1241 -0.051946,-0.082 z m -0.5469633,0.0984 -0.1313939,0.0393 -0.06417,0.11832 0.018325,0.062 0.039724,-0.0115 -0.00918,-0.0349 0.036668,-0.0909 0.11306,-0.026 0.088614,0.0606 0.04278,0.14862 -0.07028,0.11226 -0.076392,0.0378 -0.021384,0.0395 0.088614,-0.0231 0.088614,-0.0788 0.033612,-0.11226 -0.030556,-0.15151 z m -0.39418,0.0202 -0.2047299,0.0231 -0.061113,0.10908 0.02139,0.13939 0.018325,0.0349 0.044307,-0.0115 -0.035141,-0.0788 0.036668,-0.12871 0.1466718,-0.0303 0.07028,0.12727 -0.00306,0.16363 -0.04889,0.1212 -0.06417,0.0231 0.033612,0.0364 0.079448,-0.0424 0.064167,-0.1365 v -0.13016 l -0.045836,-0.1365 z m -0.61266005,0.17719 -0.0779192,0.0303 -0.0611133,0.0984 v 0.12871 l 0.0626411,-0.0144 -0.0106951,-0.10302 0.0641689,-0.0848 0.14361625,0.0378 0.051946,0.14544 -0.00458,0.11659 -0.03514,0.0788 -0.059586,0.0202 0.033612,0.0545 0.082503,-0.0517 0.061113,-0.10159 -0.03514,-0.18036 -0.061113,-0.14545 z"
         style="opacity:1;fill:#000000;fill-opacity:1;stroke:none;stroke-width:2.94428229;stroke-miterlimit:4;stroke-dasharray:8.8328462, 8.8328462;stroke-dashoffset:0;stroke-opacity:1" />
    </g>
    <path
       style="opacity:1;fill:#353535;fill-opacity:1;stroke:none;stroke-width:0.04390365;stroke-miterlimit:4;stroke-dasharray:none;stroke-dashoffset:0;stroke-opacity:1"
       d="m 13.075487,273.17217 -9.96e-4,0.0712 0.07527,0.0299 0.07569,-0.0626 -0.0043,-0.0626 -0.07858,-0.0437 z"
       id="path4951"
       inkscape:connector-curvature="0"
       inkscape:export-xdpi="614.40002"
       inkscape:export-ydpi="614.40002"
       inkscape:export-filename="C:\Projects\Art-Generator\src\images\sketch\sketch3.png" />
    <path
       style="opacity:1;fill:#353535;fill-opacity:1;stroke:none;stroke-width:0.04390365;stroke-miterlimit:4;stroke-dasharray:none;stroke-dashoffset:0;stroke-opacity:1"
       d="m 13.559729,272.97226 -0.01866,0.0962 0.06121,0.0393 0.08848,-0.0348 0.02088,-0.068 -0.05303,-0.0616 -0.09002,0.0215 z"
       id="path4953"
       inkscape:connector-curvature="0"
       sodipodi:nodetypes="cccccccc"
       inkscape:export-xdpi="614.40002"
       inkscape:export-ydpi="614.40002"
       inkscape:export-filename="C:\Projects\Art-Generator\src\images\sketch\sketch3.png" />
    <path
       style="opacity:1;fill:#e35f93;fill-opacity:1;stroke:none;stroke-width:0.04390365;stroke-miterlimit:4;stroke-dasharray:none;stroke-dashoffset:0;stroke-opacity:1"
       d="m 13.823245,273.05349 -0.0714,0.15302 -0.162075,0.11674 -0.169175,0.0762 -0.03932,0.0329 0.02713,0.0243 0.168814,-0.0619 0.03143,-0.0207 0.02432,0.005 0.07434,0.0638 0.04917,0.0713 0.07903,0.009 0.07892,-0.0343 0.03045,-0.0575 -0.04465,-0.0958 -0.09343,-0.0733 -0.0067,-0.0431 0.0366,-0.0644 0.01778,-0.0763 -0.0066,-0.0209 z"
       id="path4955"
       inkscape:connector-curvature="0"
       sodipodi:nodetypes="ccccccccccccccccccccc"
       inkscape:export-xdpi="614.40002"
       inkscape:export-ydpi="614.40002"
       inkscape:export-filename="C:\Projects\Art-Generator\src\images\sketch\sketch3.png" />
    <g
       id="g4973"
       transform="matrix(0.82742829,0.18182688,-0.18182688,0.82742829,58.710059,45.700412)"
       inkscape:transform-center-x="-0.26890441"
       inkscape:transform-center-y="-1.1499981"
       inkscape:export-xdpi="614.40002"
       inkscape:export-ydpi="614.40002"
       inkscape:export-filename="C:\Projects\Art-Generator\src\images\sketch\sketch3.png">
      <path
         sodipodi:nodetypes="cccccccc"
         inkscape:connector-curvature="0"
         id="path4957"
         d="m 5.7048476,272.91403 -0.00824,0.28413 0.021827,0.009 0.099148,-0.002 0.019749,-0.01 0.00776,-0.31323 -0.094487,-0.0117 z"
         style="opacity:1;fill:#dad8c7;fill-opacity:1;stroke:none;stroke-width:2.88587642;stroke-miterlimit:4;stroke-dasharray:8.65762898, 8.65762898;stroke-dashoffset:0;stroke-opacity:1" />
      <path
         sodipodi:nodetypes="ccccccccccc"
         inkscape:connector-curvature="0"
         id="path4959"
         d="m 5.6764844,270.58676 0.01307,2.34593 0.029923,0.0233 0.1002853,0.002 0.043331,-0.0126 -0.00686,-1.62542 0.0017,-0.74751 -0.028566,-0.0241 -0.053736,-0.0114 -0.060806,0.009 z"
         style="opacity:1;fill:#dad8c7;fill-opacity:1;stroke:none;stroke-width:2.88587642;stroke-miterlimit:4;stroke-dasharray:8.65762898, 8.65762898;stroke-dashoffset:0;stroke-opacity:1" />
      <path
         sodipodi:nodetypes="ccccccccccc"
         inkscape:connector-curvature="0"
         id="path4961"
         d="m 5.7141128,273.24245 0.02696,0.0156 0.010713,0.0155 -0.00366,0.036 0.0085,0.0108 0.013266,0.002 0.00272,-0.0161 0.00502,-0.0355 0.034178,-0.0227 -0.028859,-0.0778 z"
         style="opacity:1;fill:#e5e5e5;fill-opacity:1;stroke:none;stroke-width:1;stroke-miterlimit:4;stroke-dasharray:2.99999996, 2.99999996;stroke-dashoffset:0;stroke-opacity:1" />
      <path
         sodipodi:nodetypes="cccccccc"
         inkscape:connector-curvature="0"
         id="path4963"
         d="m 5.7225956,273.1693 -0.00848,0.0731 0.034946,-0.01 0.040259,0.002 0.022541,0.0135 0.00572,-0.10764 -0.080013,-0.002 z"
         style="opacity:1;fill:#dad8c7;fill-opacity:1;stroke:none;stroke-width:2.88587642;stroke-miterlimit:4;stroke-dasharray:8.65762898, 8.65762898;stroke-dashoffset:0;stroke-opacity:1" />
      <path
         transform="matrix(0.26458333,0,0,0.26458333,0,270.54165)"
         id="path4965"
         d="m 21.900391,2.2109375 -0.330079,0.035156 -0.103515,0.041016 v 0.125 l 0.15625,-0.076172 0.365234,0.033203 0.148438,0.056641 V 2.3105469 Z"
         style="opacity:1;fill:#1e1e1e;fill-opacity:1;stroke:none;stroke-width:4.21713543;stroke-miterlimit:4;stroke-dasharray:12.65140539, 12.65140539;stroke-dashoffset:0;stroke-opacity:1"
         inkscape:connector-curvature="0" />
      <path
         transform="matrix(0.26458333,0,0,0.26458333,0,270.54165)"
         id="path4967"
         d="m 21.830078,-0.01757813 -0.230469,0.03320313 -0.144531,0.15429688 0.002,0.4453125 L 21.601562,0.5625 21.960938,0.546875 22.138672,0.625 22.140672,0.1171875 22.03325,0.02539063 Z"
         style="opacity:1;fill:#e5e5e5;fill-opacity:1;stroke:none;stroke-width:3.77952766;stroke-miterlimit:4;stroke-dasharray:11.33858253, 11.33858253;stroke-dashoffset:0;stroke-opacity:1"
         inkscape:connector-curvature="0" />
      <path
         transform="matrix(0.26458333,0,0,0.26458333,0,270.54165)"
         id="path4969"
         d="m 21.796875,10.4375 -0.03125,0.0078 -0.03711,0.02149 0.0293,0.03516 0.04883,0.0078 0.0098,-0.05469 z"
         style="opacity:1;fill:#1e1e1e;fill-opacity:1;stroke:none;stroke-width:3.77952766;stroke-miterlimit:4;stroke-dasharray:11.33858253, 11.33858253;stroke-dashoffset:0;stroke-opacity:1"
         inkscape:connector-curvature="0" />
      <path
         inkscape:connector-curvature="0"
         id="path4971"
         d="m 5.8497721,270.67394 0.047542,0.0165 v 0.46819 l -0.010335,0.0134 -0.021704,-0.0207 -0.0062,-0.0351 0.015503,-0.0289 0.0062,10e-4 -0.01447,0.03 0.0031,0.0227 0.012401,0.0155 0.00517,-0.005 -0.00206,-0.26458 0.00414,-0.17363 -0.00517,-0.0165 -0.032039,-0.0114 z"
         style="opacity:1;fill:#e5e5e5;fill-opacity:1;stroke:none;stroke-width:1;stroke-miterlimit:4;stroke-dasharray:2.99999996, 2.99999996;stroke-dashoffset:0;stroke-opacity:1" />
    </g>
    <path
       style="opacity:1;fill:#353535;fill-opacity:1;stroke:none;stroke-width:0.03068023;stroke-miterlimit:4;stroke-dasharray:none;stroke-dashoffset:0;stroke-opacity:1"
       d="m 13.78275,272.87635 -0.09366,-0.0663 -0.07025,-0.46442 -0.03512,-0.0819 -0.03122,0.0117 -0.226353,0.39807 -0.03512,0.039 -0.05854,-0.0117 -0.433192,-0.18344 -0.05854,-0.007 -0.02732,0.0469 0.277087,0.49564 -0.156106,0.16 -0.04683,0.0936 0.03122,0.035 0.417582,0.0742 0.04293,0.0819 0.03903,0.29269 0.04293,0.0312 0.01561,-0.0429 -0.04683,-0.32392 -0.06244,-0.0936 -0.386361,-0.0586 v -0.039 l 0.187327,-0.17561 0.01171,-0.039 -0.245866,-0.40197 -0.01171,-0.035 0.07805,0.039 0.378555,0.14829 0.07025,-0.0195 0.171716,-0.32 0.03122,-0.0274 0.01951,0.0586 0.05464,0.36687 0.03512,0.0586 0.128787,0.0469 0.01951,-0.0429 z"
       id="path4975"
       inkscape:connector-curvature="0"
       inkscape:export-xdpi="614.40002"
       inkscape:export-ydpi="614.40002"
       inkscape:export-filename="C:\Projects\Art-Generator\src\images\sketch\sketch3.png" />
    <rect
       style="opacity:1;fill:#353535;fill-opacity:0;stroke:none;stroke-width:0.065;stroke-miterlimit:4;stroke-dasharray:none;stroke-dashoffset:0;stroke-opacity:1"
       id="rect4977"
       width="5.2916665"
       height="5.2916665"
       x="10.583331"
       y="270.54166"
       inkscape:export-xdpi="614.40002"
       inkscape:export-ydpi="614.40002"
       inkscape:export-filename="C:\Projects\Art-Generator\src\images\sketch\sketch3.png" />
    <path
       style="opacity:1;fill:#353535;fill-opacity:1;stroke:none;stroke-width:0.065;stroke-miterlimit:4;stroke-dasharray:none;stroke-dashoffset:0;stroke-opacity:1"
       d="m 7.7939969,273.318 0.019672,-0.12831 0.026606,-0.0891 0.045732,-0.0133 0.1115089,0.0382 0.1012321,0.0566 -0.00477,0.0484 -0.035191,0.0146 -0.09735,-0.0618 -0.053707,-0.009 -0.028487,0.0213 -0.026258,0.12187 -0.027168,0.0303 z"
       id="path4616-3"
       inkscape:connector-curvature="0"
       inkscape:export-xdpi="614.40002"
       inkscape:export-ydpi="614.40002"
       inkscape:export-filename="C:\Projects\Art-Generator\src\images\sketch\sketch2.png" />
    <path
       style="opacity:1;fill:#353535;fill-opacity:1;stroke:none;stroke-width:0.065;stroke-miterlimit:4;stroke-dasharray:none;stroke-dashoffset:0;stroke-opacity:1"
       d="m 8.2086002,273.07153 -0.00297,0.0968 0.035536,0.0245 0.033691,-0.024 0.012317,-0.0786 0.016241,-0.0773 0.035325,-0.008 0.114153,0.0433 0.048373,-0.002 0.017953,-0.0355 -0.055289,-0.0374 -0.136248,-0.0288 -0.063983,0.01 -0.024437,0.0421 z"
       id="path4618-1"
       inkscape:connector-curvature="0"
       inkscape:export-xdpi="614.40002"
       inkscape:export-ydpi="614.40002"
       inkscape:export-filename="C:\Projects\Art-Generator\src\images\sketch\sketch2.png" />
    <path
       style="opacity:1;fill:#f2b47b;fill-opacity:1;stroke:none;stroke-width:0.16645065;stroke-miterlimit:4;stroke-dasharray:none;stroke-dashoffset:0;stroke-opacity:1"
       d="m 45.033203,13.130859 -0.03711,0.01563 -0.638672,0.539063 -0.02148,0.04101 -0.08789,0.84961 -0.279297,0.777344 -0.669922,0.423828 -0.728516,-0.07617 -0.384765,-0.183594 h -0.05469 l -0.132812,0.0625 -0.03125,0.07813 0.07227,0.193359 0.03711,0.03711 0.53125,0.199219 0.01953,0.0039 0.779297,0.01953 0.03516,-0.0098 0.447266,-0.285156 0.0098,-0.0078 0.294921,-0.275391 0.01367,-0.01758 0.246094,-0.519531 0.0059,-0.01953 0.111328,-0.8125 0.111329,-0.357421 0.359375,-0.292969 0.332031,-0.02539 0.513672,0.13086 0.27539,0.167968 0.04687,0.0078 0.115235,-0.02539 0.04297,-0.08594 -0.07813,-0.179688 -0.01953,-0.02539 -0.427734,-0.3125 -0.03516,-0.01172 -0.767579,-0.02344 h -0.0059 z"
       transform="matrix(0.26458333,0,0,0.26458333,0,270.51826)"
       id="path1054"
       inkscape:connector-curvature="0"
       sodipodi:nodetypes="cccccccccccccccccccccccccccccccccccccccc"
       inkscape:export-filename="C:\Projects\Art-Generator\src\images\sketch\sketch3.png"
       inkscape:export-xdpi="614.40002"
       inkscape:export-ydpi="614.40002" />
    <path
       style="opacity:1;fill:#f2b47b;fill-opacity:1;stroke:none;stroke-width:0.16645065;stroke-miterlimit:4;stroke-dasharray:none;stroke-dashoffset:0;stroke-opacity:1"
       d="m 25.867188,13.263672 -0.628907,0.01758 -0.03125,0.0098 -0.677734,0.425781 -0.01563,0.01367 -0.363281,0.466797 -0.01367,0.0293 -0.07617,0.5 -0.09961,0.359376 -0.25,0.429687 -0.271485,0.150391 -0.626953,0.07031 -0.400391,-0.05859 -0.02344,0.002 -0.294922,0.06445 -0.04883,0.05273 -0.01172,0.103516 0.04883,0.06836 0.341797,0.08008 0.01367,0.002 0.859375,-0.002 0.01367,-0.002 0.462891,-0.09961 0.0332,-0.01953 0.351562,-0.404296 0.0098,-0.01563 0.210937,-0.470703 0.0039,-0.01367 0.107422,-0.583985 0.357422,-0.533203 0.478516,-0.339844 0.515625,0.04297 0.289062,0.15625 0.05664,0.002 0.134766,-0.06445 0.03125,-0.07813 -0.04883,-0.128906 -0.03125,-0.0332 -0.376954,-0.191407 -0.0293,-0.0078 z"
       transform="matrix(0.26458333,0,0,0.26458333,0,270.51826)"
       id="path1052"
       inkscape:connector-curvature="0"
       sodipodi:nodetypes="ccccccccccccccccccccccccccccccccccccccccc"
       inkscape:export-filename="C:\Projects\Art-Generator\src\images\sketch\sketch2.png"
       inkscape:export-xdpi="614.40002"
       inkscape:export-ydpi="614.40002" />
    <path
       style="opacity:1;fill:#f2b47b;fill-opacity:1;stroke:none;stroke-width:0.16645065;stroke-miterlimit:4;stroke-dasharray:none;stroke-dashoffset:0;stroke-opacity:1"
       d="m 5.1738281,13.328122 -0.029297,0.0098 -0.6738281,0.449218 -0.023437,0.03125 -0.3183594,0.875 -0.00195,0.0059 -0.2109375,0.773437 -0.4609375,0.347656 -0.5644531,0.09766 -0.4667969,-0.0918 -0.060547,0.02148 -0.070312,0.08594 v 0.07813 l 0.09375,0.115234 0.035156,0.02148 0.3710938,0.08203 0.021484,0.002 0.6816407,-0.08594 0.029297,-0.01172 0.6269532,-0.462891 0.019531,-0.02734 0.1289062,-0.308593 0.00391,-0.0098 L 4.4394531,14.761719 4.7109375,14 5.3125,13.630859 l 0.5761719,0.02734 0.2890625,0.09961 h 0.039063 l 0.1015625,-0.0332 0.033203,-0.08984 -0.072266,-0.123047 -0.021484,-0.02344 -0.2421879,-0.13672 -0.029297,-0.0078 -0.8046875,-0.01563 h -0.00781 z"
       transform="matrix(0.26458333,0,0,0.26458333,0,270.51826)"
       id="path1050"
       inkscape:connector-curvature="0"
       sodipodi:nodetypes="cccccccccccccccccccccccccccccccccccccc"
       inkscape:export-filename="C:\Projects\Art-Generator\src\images\sketch\sketch1.png"
       inkscape:export-xdpi="614.40002"
       inkscape:export-ydpi="614.40002" />
    <path
       style="opacity:1;fill:#f2b47b;fill-opacity:1;stroke:none;stroke-width:0.16645065;stroke-miterlimit:4;stroke-dasharray:none;stroke-dashoffset:0;stroke-opacity:1"
       d="m 46.626953,14.951169 -0.0098,0.002 -0.410157,0.103516 -0.02734,0.01563 L 45.71875,15.5 l -0.01758,0.02734 -0.230469,0.767578 -0.002,0.02148 0.03516,0.589844 0.0098,0.0293 0.271484,0.429687 0.16211,0.332032 0.0957,0.490234 -0.107422,0.291016 -0.423828,0.464843 -0.339844,0.220703 -0.01758,0.01563 -0.179688,0.246093 V 19.5 l 0.06055,0.08398 0.08008,0.01758 0.308605,-0.16406 0.01172,-0.0078 0.646484,-0.566407 0.0098,-0.0098 0.283168,-0.380837 0.01172,-0.03711 -0.002,-0.537109 -0.0039,-0.01758 -0.152343,-0.492187 -0.0059,-0.01367 -0.300781,-0.511719 -0.08594,-0.634765 0.136718,-0.570313 0.416016,-0.306641 0.320312,-0.07617 0.04297,-0.03516 0.05859,-0.134765 -0.02734,-0.08008 -0.121094,-0.06641 -0.03516,-0.0078 z"
       transform="matrix(0.26458333,0,0,0.26458333,0,270.51826)"
       id="path1048"
       inkscape:connector-curvature="0"
       sodipodi:nodetypes="cccccccccccccccccccccccccccccccccccccccccc"
       inkscape:export-filename="C:\Projects\Art-Generator\src\images\sketch\sketch3.png"
       inkscape:export-xdpi="614.40002"
       inkscape:export-ydpi="614.40002" />
    <path
       style="opacity:1;fill:#f2b47b;fill-opacity:1;stroke:none;stroke-width:0.16645065;stroke-miterlimit:4;stroke-dasharray:none;stroke-dashoffset:0;stroke-opacity:1"
       d="m 6.5390625,14.992189 -0.5292969,0.04297 -0.033203,0.01367 -0.5957031,0.486328 -0.023437,0.03906 -0.1289063,0.826172 0.011719,0.04492 0.4921875,0.699219 0.296875,0.771485 L 5.8027352,18.673825 5.2011727,19.0957 4.7890633,19.208981 4.75,19.244141 l -0.058594,0.134765 0.027344,0.08008 0.1816406,0.09766 0.050781,0.0039 0.53125,-0.197266 0.017578,-0.0098 0.6015625,-0.496094 0.021484,-0.03125 0.1503906,-0.507813 0.00195,-0.01172 0.042969,-0.402344 -0.00195,-0.02344 -0.1542967,-0.554683 -0.00781,-0.01563 -0.4511719,-0.6875 -0.1503906,-0.34375 0.080078,-0.457031 0.234375,-0.236328 0.4726563,-0.238282 0.3183593,-0.05273 0.041016,-0.02344 0.070312,-0.0957 -0.023437,-0.09375 -0.1738282,-0.08398 -0.033203,-0.0059 z"
       transform="matrix(0.26458333,0,0,0.26458333,0,270.51826)"
       id="path1046"
       inkscape:connector-curvature="0"
       sodipodi:nodetypes="ccccccccccccccccccccccccccccccccccccccc"
       inkscape:export-filename="C:\Projects\Art-Generator\src\images\sketch\sketch1.png"
       inkscape:export-xdpi="614.40002"
       inkscape:export-ydpi="614.40002" />
    <path
       style="opacity:1;fill:#f2b47b;fill-opacity:1;stroke:none;stroke-width:0.16645065;stroke-miterlimit:4;stroke-dasharray:none;stroke-dashoffset:0;stroke-opacity:1"
       d="m 26.578125,15.005859 -0.002,0.002 -0.273438,0.05274 -0.02734,0.01172 -0.625,0.505859 -0.02148,0.03125 -0.228515,0.779297 0.002,0.03906 0.320312,0.873047 0.002,0.0039 0.335938,0.730468 -0.128906,0.560547 -0.371094,0.439453 -0.414063,0.230469 -0.03125,0.05469 v 0.109376 l 0.05078,0.06055 0.146484,0.02734 0.04102,-0.0059 0.335937,-0.175781 0.01563,-0.01172 0.466797,-0.503907 0.01563,-0.0293 0.181641,-0.759766 -0.002,-0.0332 -0.09961,-0.318359 -0.0039,-0.0078 -0.259766,-0.519531 -0.28125,-0.757813 0.22461,-0.669922 0.457031,-0.351562 0.285156,-0.107422 0.03125,-0.02539 0.05469,-0.08984 -0.03125,-0.0918 -0.134766,-0.04883 -0.03125,-0.0039 z"
       transform="matrix(0.26458333,0,0,0.26458333,0,270.51826)"
       id="path1044"
       inkscape:connector-curvature="0"
       sodipodi:nodetypes="cccccccccccccccccccccccccccccccccccccc"
       inkscape:export-filename="C:\Projects\Art-Generator\src\images\sketch\sketch2.png"
       inkscape:export-xdpi="614.40002"
       inkscape:export-ydpi="614.40002" />
    <path
       style="opacity:1;fill:#f2b47b;fill-opacity:1;stroke:none;stroke-width:0.16645065;stroke-miterlimit:4;stroke-dasharray:none;stroke-dashoffset:0;stroke-opacity:1"
       d="m 28.53125,15.062499 -0.01367,0.0039 -0.498047,0.181641 -0.0293,0.02344 -0.445312,0.626954 -0.01172,0.04297 0.09375,0.830078 0.02344,0.04102 0.658203,0.544922 0.492187,0.664062 -0.01953,0.791016 -0.466797,0.564453 -0.367187,0.220703 -0.03125,0.04492 -0.01953,0.144531 0.04883,0.06836 0.199219,0.04687 0.05078,-0.0098 0.462891,-0.332031 0.01367,-0.01563 0.445313,-0.636719 0.01172,-0.0332 0.01172,-0.53125 -0.002,-0.01172 -0.06445,-0.398437 -0.0078,-0.02148 -0.294922,-0.492187 -0.01172,-0.01563 -0.617188,-0.544922 -0.234375,-0.291016 -0.04492,-0.460937 0.164063,-0.291016 0.392578,-0.355468 0.292969,-0.134766 0.0332,-0.03516 0.04102,-0.109375 -0.04687,-0.08203 -0.189453,-0.03516 -0.01953,-0.002 z"
       transform="matrix(0.26458333,0,0,0.26458333,0,270.51826)"
       id="path1042"
       inkscape:connector-curvature="0"
       sodipodi:nodetypes="cccccccccccccccccccccccccccccccccccccccc"
       inkscape:export-filename="C:\Projects\Art-Generator\src\images\sketch\sketch2.png"
       inkscape:export-xdpi="614.40002"
       inkscape:export-ydpi="614.40002" />
    <path
       style="opacity:1;fill:#f2b47b;fill-opacity:1;stroke:none;stroke-width:0.16645065;stroke-miterlimit:4;stroke-dasharray:none;stroke-dashoffset:0;stroke-opacity:1"
       d="m 8.5683594,15.074219 -0.025391,0.0078 -0.3710934,0.203137 -0.023437,0.02149 -0.3378906,0.529297 -0.00977,0.03125 -0.033203,0.798828 0.00391,0.02148 0.1796875,0.564453 0.015625,0.02539 0.3691406,0.347656 0.2402344,0.283203 0.2148437,0.451172 -0.03125,0.308594 -0.2929687,0.554687 -0.2773438,0.298828 -0.013672,0.01953 -0.1113281,0.28125 0.017578,0.07031 0.078125,0.06836 0.083984,-0.002 0.2597656,-0.238281 0.00781,-0.0098 0.484375,-0.708985 0.00781,-0.01172 0.1796876,-0.439453 0.00195,-0.03906 -0.134757,-0.517494 -0.00781,-0.01758 -0.2714868,-0.439452 -0.00781,-0.01172 -0.4199244,-0.417967 -0.2382812,-0.597656 -0.00977,-0.585938 0.3261719,-0.40039 0.2929688,-0.152344 0.03125,-0.04492 0.023437,-0.146484 -0.044922,-0.07031 -0.1367188,-0.0332 -0.019531,-0.002 z"
       transform="matrix(0.26458333,0,0,0.26458333,0,270.51826)"
       id="path1040"
       inkscape:connector-curvature="0"
       sodipodi:nodetypes="cccccccccccccccccccccccccccccccccccccccccc"
       inkscape:export-filename="C:\Projects\Art-Generator\src\images\sketch\sketch1.png"
       inkscape:export-xdpi="614.40002"
       inkscape:export-ydpi="614.40002" />
    <path
       style="opacity:1;fill:#f2b47b;fill-opacity:1;stroke:none;stroke-width:0.16645065;stroke-miterlimit:4;stroke-dasharray:none;stroke-dashoffset:0;stroke-opacity:1"
       d="m 48.572266,15.078119 -0.01953,0.0059 -0.255859,0.113282 -0.02344,0.01953 -0.490235,0.636719 -0.01367,0.0332 -0.04297,0.810547 0.0098,0.03906 0.513638,0.775362 0.0039,0.0039 0.496094,0.630859 0.002,0.576172 -0.259765,0.511719 -0.34961,0.322266 -0.01758,0.05859 0.02539,0.107422 0.06445,0.04883 0.148437,-0.0078 0.03711,-0.01563 L 48.6875,19.5 l 0.01367,-0.01563 0.33789,-0.597656 0.0078,-0.03125 0.002,-0.78125 -0.0098,-0.03125 -0.169921,-0.28711 -0.0059,-0.0098 -0.373047,-0.44336 -0.449218,-0.671875 0.06445,-0.703125 0.363281,-0.447265 0.251953,-0.173828 0.02344,-0.03125 0.0332,-0.09961 -0.05078,-0.08203 -0.140624,-0.01563 h -0.01367 z"
       transform="matrix(0.26458333,0,0,0.26458333,0,270.51826)"
       id="path4627-3"
       inkscape:connector-curvature="0"
       sodipodi:nodetypes="cccccccccccccccccccccccccccccccccccccc"
       inkscape:export-filename="C:\Projects\Art-Generator\src\images\sketch\sketch3.png"
       inkscape:export-xdpi="614.40002"
       inkscape:export-ydpi="614.40002" />
    <rect
       inkscape:export-ydpi="614.40002"
       inkscape:export-xdpi="614.40002"
       y="270.54166"
       x="5.2916665"
       height="5.2916665"
       width="5.2916665"
       id="rect939"
       style="opacity:1;fill:#353535;fill-opacity:0;stroke:none;stroke-width:0.065;stroke-miterlimit:4;stroke-dasharray:none;stroke-dashoffset:0;stroke-opacity:1"
       inkscape:export-filename="C:\Projects\Art-Generator\src\images\sketch\sketch2.png" />
    <rect
       y="281.12497"
       x="5.2916665"
       height="5.2916665"
       width="5.2916665"
       id="rect1066-2"
       style="opacity:1;fill:#000000;fill-opacity:0;stroke:none;stroke-width:0.065;stroke-miterlimit:4;stroke-dasharray:none;stroke-dashoffset:0;stroke-opacity:1"
       inkscape:export-filename="C:\Projects\Art-Generator\src\images\game2.png"
       inkscape:export-xdpi="614.40002"
       inkscape:export-ydpi="614.40002" />
    <rect
       style="opacity:1;fill:#000000;fill-opacity:0;stroke:none;stroke-width:0.065;stroke-miterlimit:4;stroke-dasharray:none;stroke-dashoffset:0;stroke-opacity:1"
       id="rect1068-3"
       width="5.2916665"
       height="5.2916665"
       x="10.583331"
       y="281.12497"
       inkscape:export-filename="C:\Projects\Art-Generator\src\images\game3.png"
       inkscape:export-xdpi="614.40002"
       inkscape:export-ydpi="614.40002" />
    <rect
       style="opacity:1;fill:#000000;fill-opacity:0;stroke:none;stroke-width:0.065;stroke-miterlimit:4;stroke-dasharray:none;stroke-dashoffset:0;stroke-opacity:1"
       id="rect1064-1"
       width="5.2916665"
       height="5.2916665"
       x="4.4408921e-016"
       y="281.12497"
       inkscape:export-filename="C:\Projects\Art-Generator\src\images\game1.png"
       inkscape:export-xdpi="614.40002"
       inkscape:export-ydpi="614.40002" />
    <circle
       style="opacity:1;fill:#be2633;fill-opacity:1;stroke:none;stroke-width:0.065;stroke-miterlimit:4;stroke-dasharray:none;stroke-dashoffset:0;stroke-opacity:1"
       id="path1056-0"
       cx="2.6458333"
       cy="283.80389"
       r="1.4221355"
       inkscape:export-filename="C:\Projects\Art-Generator\src\images\game1.png"
       inkscape:export-xdpi="614.40002"
       inkscape:export-ydpi="614.40002" />
    <circle
       r="1.4221355"
       cy="283.72122"
       cx="8.0201826"
       id="circle1058-9"
       style="opacity:1;fill:#be2679;fill-opacity:1;stroke:none;stroke-width:0.065;stroke-miterlimit:4;stroke-dasharray:none;stroke-dashoffset:0;stroke-opacity:1"
       inkscape:export-filename="C:\Projects\Art-Generator\src\images\game2.png"
       inkscape:export-xdpi="614.40002"
       inkscape:export-ydpi="614.40002" />
    <circle
       style="opacity:1;fill:#9926be;fill-opacity:1;stroke:none;stroke-width:0.065;stroke-miterlimit:4;stroke-dasharray:none;stroke-dashoffset:0;stroke-opacity:1"
       id="circle1060-6"
       cx="13.129949"
       cy="283.87006"
       r="1.4221355"
       inkscape:export-filename="C:\Projects\Art-Generator\src\images\game3.png"
       inkscape:export-xdpi="614.40002"
       inkscape:export-ydpi="614.40002" />
    <g
       id="g1329"
       transform="rotate(-3.493265,15.788607,-47.920487)"
       inkscape:export-filename="C:\Projects\Art-Generator\src\images\art\art1.png"
       inkscape:export-xdpi="614.40002"
       inkscape:export-ydpi="614.40002">
      <path
         inkscape:connector-curvature="0"
         id="path1104-9"
         d="m -17.708773,275.16009 -1.356392,0.0117 -0.198782,0.0935 -0.08185,0.26894 -0.02339,2.63093 0.01169,0.54958 0.09354,0.1637 0.374177,0.10523 3.051884,-0.0117 0.549573,-0.0351 0.140317,-0.0702 0.08185,-0.24556 v -3.09853 l -0.105237,-0.19879 -0.362485,-0.15201 z"
         style="opacity:1;fill:#f3b14a;fill-opacity:1;stroke:none;stroke-width:0.065;stroke-miterlimit:4;stroke-dasharray:none;stroke-dashoffset:0;stroke-opacity:1" />
      <path
         sodipodi:nodetypes="cccccccccccccc"
         inkscape:connector-curvature="0"
         id="path1106-2"
         d="m -18.263474,275.48852 -0.573369,0.0267 -0.213347,0.12001 -0.02667,0.34669 0.01333,2.54682 0.08001,0.13334 0.260016,0.04 2.986854,-0.04 0.300019,-0.0534 0.16001,-0.16001 -0.06667,-2.72016 -0.09334,-0.14668 -0.246682,-0.0667 z"
         style="opacity:1;fill:#568cf4;fill-opacity:1;stroke:none;stroke-width:0.07412281;stroke-miterlimit:4;stroke-dasharray:none;stroke-dashoffset:0;stroke-opacity:1" />
      <path
         id="path1129-4"
         d="m -18.263622,275.48873 -0.573092,0.0264 -0.213424,0.11989 -0.02687,0.34675 0.01344,2.54713 0.02584,0.0429 1.627291,0.0615 0.929659,-1.10535 0.993738,-0.36226 0.172599,-0.24598 -0.0098,-0.40669 -0.338481,-0.12506 -0.385506,0.0584 -0.421163,0.24546 -0.274919,0.36277 -1.081587,0.12867 -0.420646,-0.2806 -0.227893,-0.50901 0.362251,-0.34468 0.549838,-0.0997 0.432531,-0.15193 0.03876,-0.29662 z"
         style="opacity:1;fill:#e1e9f9;fill-opacity:1;stroke:none;stroke-width:0.065;stroke-miterlimit:4;stroke-dasharray:none;stroke-dashoffset:0;stroke-opacity:1"
         inkscape:connector-curvature="0" />
      <path
         id="path1122-6"
         d="m -15.865319,277.89582 -0.380339,0.0248 -0.438216,0.091 -0.669726,0.23151 -0.65319,0.0496 -0.909506,-0.091 -0.149344,-0.0599 0.0021,0.38706 0.0801,0.13332 0.259932,0.0398 2.986898,-0.0398 0.300241,-0.0537 0.15968,-0.15968 -0.01085,-0.43718 z"
         style="opacity:1;fill:#47e67c;fill-opacity:1;stroke:none;stroke-width:0.065;stroke-miterlimit:4;stroke-dasharray:none;stroke-dashoffset:0;stroke-opacity:1"
         inkscape:connector-curvature="0" />
      <path
         inkscape:connector-curvature="0"
         id="path1114-5"
         d="m -17.26265,276.5233 -0.413411,0.10749 -0.330729,0.38861 -0.06615,0.59531 0.264583,0.42168 0.760677,0.24805 0.545703,-0.24805 0.239779,-0.62012 -0.206706,-0.57877 -0.363802,-0.27285 z"
         style="opacity:1;fill:#1e2c62;fill-opacity:1;stroke:none;stroke-width:0.065;stroke-miterlimit:4;stroke-dasharray:none;stroke-dashoffset:0;stroke-opacity:1" />
      <path
         inkscape:connector-curvature="0"
         id="path1116-8"
         d="m -17.419746,277.93717 -0.239779,-0.0661 -0.157096,0.1819 0.06615,0.28938 0.23151,0.23151 h 0.297657 l 0.09922,-0.27285 -0.115756,-0.22324 z"
         style="opacity:1;fill:#f3b14a;fill-opacity:1;stroke:none;stroke-width:0.065;stroke-miterlimit:4;stroke-dasharray:none;stroke-dashoffset:0;stroke-opacity:1" />
      <path
         inkscape:connector-curvature="0"
         id="path1118-8"
         d="m -17.221136,277.13875 -0.05788,0.13229 0.04961,0.1819 0.115755,-0.0165 0.05788,-0.14883 v -0.17363 l -0.09095,-0.0331 z"
         style="opacity:1;fill:#d6d7ff;fill-opacity:1;stroke:none;stroke-width:0.065;stroke-miterlimit:4;stroke-dasharray:none;stroke-dashoffset:0;stroke-opacity:1" />
      <path
         inkscape:connector-curvature="0"
         id="path1120-1"
         d="m -17.912602,276.99653 -0.01358,0.14501 0.08829,0.0967 0.08829,-0.0886 0.01358,-0.15307 -0.04754,-0.0725 z"
         style="opacity:1;fill:#d6d7ff;fill-opacity:1;stroke:none;stroke-width:0.05815092;stroke-miterlimit:4;stroke-dasharray:none;stroke-dashoffset:0;stroke-opacity:1" />
      <path
         inkscape:connector-curvature="0"
         id="path1127-2"
         d="m -17.398907,276.59249 -0.04093,-0.0935 0.122777,-0.0468 0.280633,0.006 0.140316,0.0643 -0.03508,0.12278 -0.128623,0.0117 -0.239708,-0.0292 z"
         style="opacity:1;fill:#bdbdbd;fill-opacity:1;stroke:none;stroke-width:0.065;stroke-miterlimit:4;stroke-dasharray:none;stroke-dashoffset:0;stroke-opacity:1" />
      <path
         id="path1134-2"
         d="m -19.076493,275.97242 -5.15e-4,0.009 0.01137,2.11356 0.372587,-0.1695 0.326078,-0.84439 -0.28112,-0.78807 z"
         style="opacity:1;fill:#1e2c62;fill-opacity:1;stroke:none;stroke-width:0.08850564;stroke-miterlimit:4;stroke-dasharray:none;stroke-dashoffset:0;stroke-opacity:1"
         inkscape:connector-curvature="0" />
      <path
         id="path1142-3"
         d="m -15.541308,277.22403 -0.249597,0.0238 -0.21084,0.15813 -0.119889,0.33589 0.13901,0.35967 0.316259,0.14366 0.381372,-0.12402 -0.02015,-0.83613 z"
         style="opacity:1;fill:#1e2c62;fill-opacity:1;stroke:none;stroke-width:0.03769406;stroke-miterlimit:4;stroke-dasharray:none;stroke-dashoffset:0;stroke-opacity:1"
         inkscape:connector-curvature="0" />
      <path
         inkscape:connector-curvature="0"
         id="path1116-7-7"
         d="m -15.626319,278.05583 -0.101974,-0.0653 -0.09931,0.0619 -0.011,0.14413 0.07425,0.14108 0.138431,0.0429 0.08552,-0.11257 -0.02161,-0.12053 z"
         style="opacity:1;fill:#f3b14a;fill-opacity:1;stroke:none;stroke-width:0.03165177;stroke-miterlimit:4;stroke-dasharray:none;stroke-dashoffset:0;stroke-opacity:1" />
      <path
         style="opacity:1;fill:#d6d7ff;fill-opacity:1;stroke:none;stroke-width:0.03304651;stroke-miterlimit:4;stroke-dasharray:none;stroke-dashoffset:0;stroke-opacity:1"
         d="m -15.886201,277.55041 -0.0049,0.0732 -0.06503,0.0704 -0.04835,-0.0346 0.0088,-0.0807 0.04071,-0.0783 0.04879,0.006 z"
         id="path1159-5"
         inkscape:connector-curvature="0" />
      <path
         style="opacity:1;fill:#d6d7ff;fill-opacity:1;stroke:none;stroke-width:0.02956438;stroke-miterlimit:4;stroke-dasharray:none;stroke-dashoffset:0;stroke-opacity:1"
         d="m -15.540925,277.64838 -0.02787,0.0686 -0.0625,0.0229 -0.01906,-0.0607 0.02976,-0.0722 0.03845,-0.0215 z"
         id="path1161-6"
         inkscape:connector-curvature="0" />
      <path
         inkscape:connector-curvature="0"
         id="path1127-4-2"
         d="m -15.658929,277.26441 -0.0235,-0.0537 0.0705,-0.0269 0.161144,0.003 0.08057,0.0369 -0.02014,0.0705 -0.07386,0.007 -0.137644,-0.0168 z"
         style="opacity:1;fill:#bdbdbd;fill-opacity:1;stroke:none;stroke-width:0.03732399;stroke-miterlimit:4;stroke-dasharray:none;stroke-dashoffset:0;stroke-opacity:1" />
    </g>
    <g
       id="g1345"
       transform="translate(20.255786,1.4072662)"
       inkscape:export-filename="C:\Projects\Art-Generator\src\images\art\art2.png"
       inkscape:export-xdpi="614.40002"
       inkscape:export-ydpi="614.40002">
      <path
         style="opacity:1;fill:#f3b14a;fill-opacity:1;stroke:none;stroke-width:0.065;stroke-miterlimit:4;stroke-dasharray:none;stroke-dashoffset:0;stroke-opacity:1"
         d="m -12.809388,275.16009 -1.356392,0.0117 -0.198782,0.0935 -0.08185,0.26894 -0.02339,2.63093 0.01169,0.54958 0.09354,0.1637 0.374177,0.10523 3.051884,-0.0117 0.549573,-0.0351 0.140317,-0.0702 0.08185,-0.24556 v -3.09853 l -0.105237,-0.19879 -0.362485,-0.15201 z"
         id="path1238"
         inkscape:connector-curvature="0" />
      <path
         style="opacity:1;fill:#568cf4;fill-opacity:1;stroke:none;stroke-width:0.07412281;stroke-miterlimit:4;stroke-dasharray:none;stroke-dashoffset:0;stroke-opacity:1"
         d="m -13.364089,275.48852 -0.573369,0.0267 -0.213347,0.12001 -0.02667,0.34669 0.01333,2.54682 0.08001,0.13334 0.260016,0.04 2.986854,-0.04 0.300019,-0.0534 0.16001,-0.16001 -0.06667,-2.72016 -0.09334,-0.14668 -0.246682,-0.0667 z"
         id="path1240"
         inkscape:connector-curvature="0"
         sodipodi:nodetypes="cccccccccccccc" />
      <path
         sodipodi:nodetypes="ccccccccccccccccccccccc"
         inkscape:connector-curvature="0"
         style="opacity:1;fill:#e1e9f9;fill-opacity:1;stroke:none;stroke-width:0.065;stroke-miterlimit:4;stroke-dasharray:none;stroke-dashoffset:0;stroke-opacity:1"
         d="m -13.364237,275.48873 -0.573092,0.0264 -0.213424,0.11989 -0.02687,0.34675 0.01344,2.54713 0.02584,0.0429 1.627291,0.0615 0.830268,-1.07027 1.093129,-0.34472 0.172599,-0.2986 -0.0098,-0.40669 -0.309248,-0.17183 -0.473204,0.0642 -0.397777,0.23962 -0.280766,0.35107 -1.040661,0.22222 -0.496651,-0.27475 -0.186967,-0.49732 0.37979,-0.42653 0.555685,-0.006 0.414991,-0.18116 0.06799,-0.3317 z"
         id="path1242" />
      <path
         inkscape:connector-curvature="0"
         style="opacity:1;fill:#47e67c;fill-opacity:1;stroke:none;stroke-width:0.065;stroke-miterlimit:4;stroke-dasharray:none;stroke-dashoffset:0;stroke-opacity:1"
         d="m -10.965934,277.89582 -0.380339,0.0248 -0.438216,0.091 -0.669726,0.23151 -0.65319,0.0496 -0.909506,-0.091 -0.149344,-0.0599 0.0021,0.38706 0.0801,0.13332 0.259932,0.0398 2.986898,-0.0398 0.300241,-0.0537 0.15968,-0.15968 -0.01085,-0.43718 z"
         id="path1244" />
      <path
         inkscape:connector-curvature="0"
         id="path1246"
         d="m -13.258622,276.17955 -0.49351,0.12816 -0.394808,0.46405 -0.02532,0.22583 0.0031,0.57567 0.258899,0.41238 0.908472,0.29611 0.651123,-0.29611 0.286287,-0.74001 -0.247013,-0.69091 -0.434082,-0.32556 z"
         style="opacity:1;fill:#1e2c62;fill-opacity:1;stroke:none;stroke-width:0.07759231;stroke-miterlimit:4;stroke-dasharray:none;stroke-dashoffset:0;stroke-opacity:1" />
      <path
         style="opacity:1;fill:#f3b14a;fill-opacity:1;stroke:none;stroke-width:0.07759231;stroke-miterlimit:4;stroke-dasharray:none;stroke-dashoffset:0;stroke-opacity:1"
         d="m -13.446192,277.86733 -0.286231,-0.0789 -0.18753,0.21714 0.07896,0.34544 0.27636,0.27636 h 0.355322 l 0.118442,-0.3257 -0.138182,-0.26649 z"
         id="path1248"
         inkscape:connector-curvature="0" />
      <path
         style="opacity:1;fill:#d6d7ff;fill-opacity:1;stroke:none;stroke-width:0.07759231;stroke-miterlimit:4;stroke-dasharray:none;stroke-dashoffset:0;stroke-opacity:1"
         d="m -13.209106,276.91423 -0.06909,0.15792 0.05922,0.21714 0.13818,-0.0197 0.06909,-0.17766 v -0.20727 l -0.108569,-0.0395 z"
         id="path1250"
         inkscape:connector-curvature="0" />
      <path
         style="opacity:1;fill:#d6d7ff;fill-opacity:1;stroke:none;stroke-width:0.06941638;stroke-miterlimit:4;stroke-dasharray:none;stroke-dashoffset:0;stroke-opacity:1"
         d="m -14.034528,276.74446 -0.01621,0.1731 0.105395,0.11544 0.105393,-0.10577 0.01621,-0.18272 -0.05675,-0.0866 z"
         id="path1252"
         inkscape:connector-curvature="0" />
      <path
         style="opacity:1;fill:#bdbdbd;fill-opacity:1;stroke:none;stroke-width:0.07759231;stroke-miterlimit:4;stroke-dasharray:none;stroke-dashoffset:0;stroke-opacity:1"
         d="m -13.421317,276.26215 -0.04886,-0.11162 0.146562,-0.0559 0.334999,0.007 0.167499,0.0767 -0.04187,0.14656 -0.153542,0.0139 -0.286146,-0.0349 z"
         id="path1254"
         inkscape:connector-curvature="0" />
      <path
         inkscape:connector-curvature="0"
         id="path1258"
         d="m -11.019482,276.79346 -0.379305,0.0362 -0.320394,0.24029 -0.182418,0.51057 0.211357,0.54673 0.48059,0.21808 0.57981,-0.18862 0.240295,-0.22169 -0.01912,-0.77205 -0.252181,-0.27647 z"
         style="opacity:1;fill:#1e2c62;fill-opacity:1;stroke:none;stroke-width:0.05728396;stroke-miterlimit:4;stroke-dasharray:none;stroke-dashoffset:0;stroke-opacity:1" />
      <path
         style="opacity:1;fill:#f3b14a;fill-opacity:1;stroke:none;stroke-width:0.04810145;stroke-miterlimit:4;stroke-dasharray:none;stroke-dashoffset:0;stroke-opacity:1"
         d="m -11.148795,278.05773 -0.15497,-0.0992 -0.150922,0.0941 -0.01672,0.21903 0.112839,0.21441 0.210375,0.0652 0.129965,-0.17106 -0.03284,-0.18318 z"
         id="path1260"
         inkscape:connector-curvature="0" />
      <path
         inkscape:connector-curvature="0"
         id="path1262"
         d="m -11.543739,277.28964 -0.0075,0.11124 -0.09882,0.10701 -0.07348,-0.0526 0.01338,-0.12265 0.06186,-0.11899 0.07415,0.009 z"
         style="opacity:1;fill:#d6d7ff;fill-opacity:1;stroke:none;stroke-width:0.05022104;stroke-miterlimit:4;stroke-dasharray:none;stroke-dashoffset:0;stroke-opacity:1" />
      <path
         inkscape:connector-curvature="0"
         id="path1264"
         d="m -11.01902,277.43852 -0.04236,0.10422 -0.09498,0.0348 -0.02897,-0.0923 0.04522,-0.10969 0.05843,-0.0327 z"
         style="opacity:1;fill:#d6d7ff;fill-opacity:1;stroke:none;stroke-width:0.04492922;stroke-miterlimit:4;stroke-dasharray:none;stroke-dashoffset:0;stroke-opacity:1" />
      <path
         style="opacity:1;fill:#bdbdbd;fill-opacity:1;stroke:none;stroke-width:0.05672156;stroke-miterlimit:4;stroke-dasharray:none;stroke-dashoffset:0;stroke-opacity:1"
         d="m -11.198353,276.855 -0.03571,-0.0816 0.107141,-0.0409 0.244892,0.004 0.122444,0.0561 -0.03061,0.10712 -0.112245,0.0111 -0.209179,-0.0255 z"
         id="path1266"
         inkscape:connector-curvature="0" />
    </g>
    <g
       id="g1361"
       transform="rotate(3.1337925,-22.600444,658.30915)"
       inkscape:export-filename="C:\Projects\Art-Generator\src\images\art\art3.png"
       inkscape:export-xdpi="614.40002"
       inkscape:export-ydpi="614.40002">
      <path
         inkscape:connector-curvature="0"
         id="path1274"
         d="m -8.079961,275.17663 -1.356392,0.0117 -0.198782,0.0935 -0.08185,0.26894 -0.02339,2.63093 0.01169,0.54958 0.09354,0.1637 0.374177,0.10523 3.0518841,-0.0117 0.549573,-0.0351 0.140317,-0.0702 0.08185,-0.24556 v -3.09853 l -0.105237,-0.19879 -0.362485,-0.15201 z"
         style="opacity:1;fill:#f3b14a;fill-opacity:1;stroke:none;stroke-width:0.065;stroke-miterlimit:4;stroke-dasharray:none;stroke-dashoffset:0;stroke-opacity:1" />
      <path
         sodipodi:nodetypes="cccccccccccccc"
         inkscape:connector-curvature="0"
         id="path1276"
         d="m -8.634662,275.50506 -0.573369,0.0267 -0.213347,0.12001 -0.02667,0.34669 0.01333,2.54682 0.08001,0.13334 0.260016,0.04 2.9868541,-0.04 0.300019,-0.0534 0.16001,-0.16001 -0.06667,-2.72016 -0.09334,-0.14668 -0.246682,-0.0667 z"
         style="opacity:1;fill:#568cf4;fill-opacity:1;stroke:none;stroke-width:0.07412281;stroke-miterlimit:4;stroke-dasharray:none;stroke-dashoffset:0;stroke-opacity:1" />
      <path
         id="path1278"
         d="m -8.63481,275.50527 -0.573092,0.0264 -0.213424,0.11989 -0.02687,0.34675 0.01344,2.54713 0.02584,0.0429 1.627291,0.0615 0.879877,-1.0372 0.9939107,-0.38606 0.2222084,-0.29033 -0.0098,-0.40669 -0.2761751,-0.19663 -0.5062769,0.0146 -0.4639231,0.28096 -0.289034,0.38414 -1.015856,0.15607 -0.447042,-0.2086 -0.153894,-0.43117 0.313644,-0.48441 0.497807,0.0188 0.522478,-0.21423 0.05145,-0.3317 z"
         style="opacity:1;fill:#e1e9f9;fill-opacity:1;stroke:none;stroke-width:0.065;stroke-miterlimit:4;stroke-dasharray:none;stroke-dashoffset:0;stroke-opacity:1"
         inkscape:connector-curvature="0"
         sodipodi:nodetypes="ccccccccccccccccccccccc" />
      <path
         id="path1280"
         d="m -6.2365069,277.91236 -0.380339,0.0248 -0.4382161,0.091 -0.669726,0.23151 -0.65319,0.0496 -0.909506,-0.091 -0.149344,-0.0599 0.0021,0.38706 0.0801,0.13332 0.259932,0.0398 2.9868981,-0.0398 0.300241,-0.0537 0.15968,-0.15968 -0.01085,-0.43718 z"
         style="opacity:1;fill:#47e67c;fill-opacity:1;stroke:none;stroke-width:0.065;stroke-miterlimit:4;stroke-dasharray:none;stroke-dashoffset:0;stroke-opacity:1"
         inkscape:connector-curvature="0" />
      <path
         inkscape:connector-curvature="0"
         id="path1282"
         d="m -9.1374265,276.16095 -0.3095419,0.0801 0.00982,1.84072 0.5565553,0.18138 0.6511229,-0.2961 0.2862876,-0.74001 -0.2470134,-0.69091 -0.434082,-0.32557 z"
         style="opacity:1;fill:#1e2c62;fill-opacity:1;stroke:none;stroke-width:0.07759231;stroke-miterlimit:4;stroke-dasharray:none;stroke-dashoffset:0;stroke-opacity:1" />
      <path
         inkscape:connector-curvature="0"
         id="path1284"
         d="m -9.4381834,277.81717 0.00362,0.72813 0.03824,0.0636 h 0.3085084 l 0.1183389,-0.32556 -0.137976,-0.26665 -0.2175579,-0.16795 z"
         style="opacity:1;fill:#f3b14a;fill-opacity:1;stroke:none;stroke-width:0.07759231;stroke-miterlimit:4;stroke-dasharray:none;stroke-dashoffset:0;stroke-opacity:1" />
      <path
         inkscape:connector-curvature="0"
         id="path1286"
         d="m -9.087717,276.89569 -0.06909,0.15792 0.05922,0.21714 0.13818,-0.0197 0.06909,-0.17766 v -0.20727 l -0.108569,-0.0395 z"
         style="opacity:1;fill:#d6d7ff;fill-opacity:1;stroke:none;stroke-width:0.07759231;stroke-miterlimit:4;stroke-dasharray:none;stroke-dashoffset:0;stroke-opacity:1" />
      <path
         inkscape:connector-curvature="0"
         id="path1290"
         d="m -9.299928,276.24361 -0.04886,-0.11162 0.146562,-0.0559 0.334999,0.007 0.167499,0.0767 -0.04187,0.14656 -0.153542,0.0139 -0.286146,-0.0349 z"
         style="opacity:1;fill:#bdbdbd;fill-opacity:1;stroke:none;stroke-width:0.07759231;stroke-miterlimit:4;stroke-dasharray:none;stroke-dashoffset:0;stroke-opacity:1" />
      <path
         sodipodi:nodetypes="cccccccccccc"
         inkscape:connector-curvature="0"
         style="opacity:1;fill:#1e2c62;fill-opacity:1;stroke:none;stroke-width:0.06685934;stroke-miterlimit:4;stroke-dasharray:none;stroke-dashoffset:0;stroke-opacity:1"
         d="m -6.8185515,276.60971 -0.4427075,0.0422 -0.37395,0.28046 -0.212911,0.5959 0.246687,0.63813 0.560924,0.25452 0.6767289,-0.22013 0.2804624,-0.25876 0.080117,-0.42525 -0.1024329,-0.47584 -0.2943347,-0.32269 z"
         id="path1292" />
      <path
         sodipodi:nodetypes="ccccccccc"
         inkscape:connector-curvature="0"
         id="path1294"
         d="m -6.969479,278.08531 -0.180875,-0.11578 -0.176149,0.10983 -0.01952,0.25564 0.131701,0.25025 0.24554,0.0761 0.1516895,-0.19965 -0.038329,-0.2138 z"
         style="opacity:1;fill:#f3b14a;fill-opacity:1;stroke:none;stroke-width:0.05614192;stroke-miterlimit:4;stroke-dasharray:none;stroke-dashoffset:0;stroke-opacity:1" />
      <path
         sodipodi:nodetypes="cccccccc"
         style="opacity:1;fill:#d6d7ff;fill-opacity:1;stroke:none;stroke-width:0.05861581;stroke-miterlimit:4;stroke-dasharray:none;stroke-dashoffset:0;stroke-opacity:1"
         d="m -7.430441,277.18883 -0.0088,0.12983 -0.115338,0.1249 -0.08576,-0.0614 0.01562,-0.14315 0.0722,-0.13888 0.08655,0.0105 z"
         id="path1296"
         inkscape:connector-curvature="0" />
      <path
         sodipodi:nodetypes="ccccccc"
         style="opacity:1;fill:#d6d7ff;fill-opacity:1;stroke:none;stroke-width:0.05243943;stroke-miterlimit:4;stroke-dasharray:none;stroke-dashoffset:0;stroke-opacity:1"
         d="m -6.8180118,277.3626 -0.049441,0.12164 -0.110856,0.0406 -0.03381,-0.10772 0.05278,-0.12803 0.0682,-0.0382 z"
         id="path1298"
         inkscape:connector-curvature="0" />
      <path
         sodipodi:nodetypes="ccccccccc"
         inkscape:connector-curvature="0"
         id="path1300"
         d="m -7.027321,276.68154 -0.04168,-0.0952 0.12505,-0.0477 0.2858272,0.005 0.1429113,0.0655 -0.035727,0.12502 -0.1310075,0.013 -0.244145,-0.0298 z"
         style="opacity:1;fill:#bdbdbd;fill-opacity:1;stroke:none;stroke-width:0.06620293;stroke-miterlimit:4;stroke-dasharray:none;stroke-dashoffset:0;stroke-opacity:1" />
      <path
         inkscape:connector-curvature="0"
         id="path1309"
         d="m -5.6725218,277.44924 -0.1415934,0.10594 -0.1100709,0.30799 0.1276408,0.32969 0.1436606,0.0651 z"
         style="opacity:1;fill:#1e2c62;fill-opacity:1;stroke:none;stroke-width:0.03455768;stroke-miterlimit:4;stroke-dasharray:none;stroke-dashoffset:0;stroke-opacity:1" />
    </g>
  </g>
</svg>
