<?xml version="1.0" encoding="UTF-8" standalone="no"?>
<!-- Created with Inkscape (http://www.inkscape.org/) -->

<svg
   xmlns:dc="http://purl.org/dc/elements/1.1/"
   xmlns:cc="http://creativecommons.org/ns#"
   xmlns:rdf="http://www.w3.org/1999/02/22-rdf-syntax-ns#"
   xmlns:svg="http://www.w3.org/2000/svg"
   xmlns="http://www.w3.org/2000/svg"
   xmlns:sodipodi="http://sodipodi.sourceforge.net/DTD/sodipodi-0.dtd"
   xmlns:inkscape="http://www.inkscape.org/namespaces/inkscape"
   width="1024"
   height="1024"
   viewBox="0 0 270.93333 270.93334"
   version="1.1"
   id="svg8"
   sodipodi:docname="logo.svg"
   inkscape:version="0.92.2 (5c3e80d, 2017-08-06)"
   inkscape:export-filename="C:\Projects\Art-Generator\public\favicon.ico.png"
   inkscape:export-xdpi="6"
   inkscape:export-ydpi="6">
  <defs
     id="defs2" />
  <sodipodi:namedview
     id="base"
     pagecolor="#ffffff"
     bordercolor="#666666"
     borderopacity="1.0"
     inkscape:pageopacity="0.0"
     inkscape:pageshadow="2"
     inkscape:zoom="0.35"
     inkscape:cx="359.45252"
     inkscape:cy="190.61989"
     inkscape:document-units="mm"
     inkscape:current-layer="layer1"
     showgrid="false"
     units="px"
     inkscape:window-width="1920"
     inkscape:window-height="1017"
     inkscape:window-x="-8"
     inkscape:window-y="-8"
     inkscape:window-maximized="1"
     inkscape:snap-global="false" />
  <metadata
     id="metadata5">
    <rdf:RDF>
      <cc:Work
         rdf:about="">
        <dc:format>image/svg+xml</dc:format>
        <dc:type
           rdf:resource="http://purl.org/dc/dcmitype/StillImage" />
        <dc:title></dc:title>
      </cc:Work>
    </rdf:RDF>
  </metadata>
  <g
     inkscape:label="Layer 1"
     inkscape:groupmode="layer"
     id="layer1"
     transform="translate(0,-26.06665)">
    <path
       style="opacity:1;fill:#000000;fill-opacity:1;stroke:none;stroke-width:1.81035495;stroke-miterlimit:4;stroke-dasharray:5.43106497, 5.43106497;stroke-dashoffset:0;stroke-opacity:1"
       d="m 125.40847,33.582112 -2.59783,0.386083 -41.239247,12.258666 -2.68513,1.296005 -39.452399,27.589519 -2.737514,2.990698 -24.281608,42.234547 -1.208695,3.88606 -3.1478542,38.57547 -0.024238,0.39384 -2.356279,60.31745 3.2409751,7.43262 0.1687888,0.14551 -0.8109701,0.99334 -2.0594433,6.75938 1.6879082,18.0674 0.061115,0.50928 2.5085785,16.79856 4.469075,6.64201 5.518675,3.2662 3.865699,1.25719 73.75183,6.999 1.001106,0.0407 107.366397,-1.3998 0.85754,-0.0504 44.15138,-4.666 7.22695,-4.85322 3.01011,-5.5992 1.11071,-4.41183 v -36.39768 l -0.76052,-3.67945 1.36293,-4.42348 2.49791,-54.46701 -0.0242,-1.21742 -4.14022,-48.6253 -1.24362,-3.91711 -27.63608,-47.193496 -3.2109,-3.26038 -46.82875,-28.376238 -3.953,-1.306673 -52.52786,-4.953135 -0.93126,-0.04172 z"
       id="path838"
       inkscape:connector-curvature="0"
       sodipodi:nodetypes="ccccccccccccccccccccccccccccccccccccccccccc" />
    <path
       style="opacity:1;fill:#4449ef;fill-opacity:1;stroke:none;stroke-width:1.81035507;stroke-miterlimit:4;stroke-dasharray:5.43106504, 5.43106504;stroke-dashoffset:0;stroke-opacity:1"
       d="m 14.987619,223.8738 2.355614,-60.3174 3.14847,-38.57541 24.281437,-42.234305 39.452061,-27.589286 41.239239,-12.258947 52.52831,4.953043 46.82901,28.376164 27.63605,47.193341 4.13962,48.6254 -2.49797,54.46706 -12.77155,4.61937 -138.35849,5.27928 -78.757901,-4.61937 z"
       id="path812"
       inkscape:connector-curvature="0"
       sodipodi:nodetypes="ccccccccccccccc" />
    <path
       style="opacity:1;fill:#ec7d2c;fill-opacity:1;stroke:none;stroke-width:1.81035507;stroke-miterlimit:4;stroke-dasharray:5.43106504, 5.43106504;stroke-dashoffset:0;stroke-opacity:1"
       d="m 15.492609,237.97481 3.084726,-3.77736 7.0752,3.71303 52.736934,3.19969 61.710811,0.93325 96.32908,-3.2664 15.05141,-5.13289 2.00686,1.39987 v 36.39696 l -3.01029,5.5995 -44.15081,4.66629 -107.366789,1.39987 -73.751961,-6.9994 -5.518854,-3.26639 -2.508569,-16.7986 z"
       id="path814"
       inkscape:connector-curvature="0"
       sodipodi:nodetypes="cccccccccccccccc" />
    <path
       style="opacity:1;fill:#ffffff;fill-opacity:1;stroke:none;stroke-width:1.87718356;stroke-miterlimit:4;stroke-dasharray:5.63155054, 5.63155054;stroke-dashoffset:0;stroke-opacity:1"
       d="m 169.85281,241.03462 -29.75276,1.00886 -10.6668,-0.16103 -0.91573,40.83862 40.24784,-0.52481 z m -82.620137,0.20953 1.212578,40.86384 10.514496,0.99819 6.593503,-0.0863 -1.04282,-41.51475 z"
       id="path818"
       inkscape:connector-curvature="0" />
    <path
       style="opacity:1;fill:#be6527;fill-opacity:1;stroke:none;stroke-width:1.87718356;stroke-miterlimit:4;stroke-dasharray:5.63155054, 5.63155054;stroke-dashoffset:0;stroke-opacity:1"
       d="m 251.48057,233.64372 -15.05148,5.13356 -9.51533,0.32303 -1.95855,40.63685 25.52232,-2.69677 3.01009,-5.5992 v -36.39767 z m -232.903029,0.5539 -3.084797,3.77742 1.687908,18.06739 2.508579,16.79856 5.51868,3.2662 21.394705,2.03033 -0.146478,-38.96542 -20.803939,-1.26205 z"
       id="path823"
       inkscape:connector-curvature="0" />
    <path
       style="opacity:1;fill:#373cdc;fill-opacity:1;stroke:none;stroke-width:1.87718356;stroke-miterlimit:4;stroke-dasharray:5.63155054, 5.63155054;stroke-dashoffset:0;stroke-opacity:1"
       d="M 125.46473,42.898581 84.225481,55.157248 44.773082,82.746767 20.491474,124.98131 l -3.147849,38.57547 -2.356279,60.31745 9.224312,7.91861 22.305596,1.30861 -0.739187,-26.75721 10.535838,-91.31188 61.711425,-44.652906 60.70645,3.512595 37.62868,32.611531 9.5328,99.33914 -0.12514,25.88415 15.55978,-0.59367 12.77183,-4.61944 2.49791,-54.46701 -4.14022,-48.6253 -27.63608,-47.193496 -46.82875,-28.376237 z"
       id="path828"
       inkscape:connector-curvature="0" />
    <g
       id="g1805"
       transform="matrix(2.1383873,-0.5855894,0.66331362,1.8878202,-254.06131,-75.641049)">
      <path
         transform="matrix(1.0071855,0.15308868,-0.15308868,1.0071855,20.561455,-20.903996)"
         d="m 135.79688,115.94141 -3.16211,0.40625 -7.76563,2.86718 -3.15625,2.41407 -4.78125,6.74414 -1.2168,3.6582 -0.16992,5.34766 2.66406,5.50586 3.36133,2.51171 2.58594,1.28321 a 3.6529951,3.6529951 0 0 1 1.54492,5.08789 l -0.35742,0.62695 -0.83203,2.30469 -1.67774,10.85742 0.19922,2.94336 0.28321,0.96289 a 3.6529951,3.6529951 0 0 1 -0.48829,3.0918 l -2.88476,4.22461 -1.04688,3.77343 0.23438,4.23047 1.90039,4.82032 4.70898,4.07226 6.19336,1.42774 5.93164,-1.60352 3.58399,-3.24609 2.10351,-6.04297 -1.25195,-6.99219 -0.48828,-1.51953 a 3.6529951,3.6529951 0 0 1 0.31445,-2.94336 l 1.75196,-3.0332 2.38476,-7.98243 a 3.6529951,3.6529951 0 0 1 0.47656,-1.0039 l 2.64649,-3.9043 a 3.6529951,3.6529951 0 0 1 1.83984,-1.40625 l 4.05274,-1.38867 4.17968,-4.2793 2.97657,-9.41406 0.0625,-3.84961 -2.11328,-7.66016 -1.73633,-3.00195 -6.56446,-6.56445 -3.95703,-1.91016 z"
         id="path997"
         style="fill:#000000;fill-opacity:1;fill-rule:nonzero;stroke:none;stroke-width:2.39351821"
         inkscape:original="M 135.77148 112.26172 L 131.75781 112.77734 L 123.08789 115.97852 L 119.05469 119.06445 L 113.63672 126.70312 L 112.08008 131.38281 L 111.86523 138.16016 L 115.30859 145.27734 L 119.65039 148.52148 L 122.5332 149.95117 L 122.01562 150.85352 L 120.95508 153.79297 L 119.16211 165.39844 L 119.41602 169.14648 L 119.8125 170.49414 L 116.58594 175.21875 L 115.2168 180.1543 L 115.51562 185.57422 L 117.96289 191.7793 L 124.03711 197.03125 L 132.00391 198.86719 L 139.66602 196.79688 L 144.5918 192.33594 L 147.31641 184.50781 L 145.85352 176.33398 L 145.29102 174.58203 L 147.25586 171.17773 L 149.76367 162.78516 L 152.41016 158.88086 L 157.28516 157.21094 L 162.67969 151.6875 L 166.08008 140.93555 L 166.1582 136.02734 L 163.78125 127.41016 L 161.57031 123.58789 L 154.22852 116.24805 L 149.1582 113.79883 L 135.77148 112.26172 z "
         inkscape:radius="-3.6526299"
         sodipodi:type="inkscape:offset" />
      <path
         style="fill:#ffffff;fill-opacity:1;fill-rule:nonzero;stroke:none;stroke-width:2.43840504"
         d="m 125.97147,175.85212 -6.7973,1.09369 -2.1548,4.80968 1.47966,6.59572 7.74729,3.07679 5.68012,-3.70322 -0.24671,-8.46768 z"
         id="path3919"
         inkscape:connector-curvature="0"
         sodipodi:nodetypes="cccccccc" />
      <path
         style="fill:#ffffff;fill-opacity:1;fill-rule:nonzero;stroke:none;stroke-width:2.43840504"
         d="m 123.64206,166.566 0.52196,4.04655 4.29672,3.43921 6.24345,-3.71516 4.43155,-9.36135 6.28115,-6.6901 7.90658,-1.4012 5.04472,-10.36364 -1.05985,-8.99414 -6.27929,-8.54161 -13.22128,-3.55266 -9.25011,1.8755 -6.63846,6.87661 -1.23203,6.78146 3.85407,3.89772 5.45957,-2.16921 5.49725,-5.14413 8.42863,2.64539 2.08386,5.73154 -5.5449,2.44109 -7.77363,3.83235 -5.46549,6.94608 z"
         id="path3921"
         inkscape:connector-curvature="0"
         sodipodi:nodetypes="ccccccccccccccccccccccc" />
    </g>
  </g>
</svg>
